<svg width="20" height="20" viewBox="0 0 20 20" fill="none" xmlns="http://www.w3.org/2000/svg">
<mask id="mask0_671_5692" style="mask-type:alpha" maskUnits="userSpaceOnUse" x="0" y="0" width="20" height="20">
<rect width="20" height="20" fill="#D9D9D9"/>
</mask>
<g mask="url(#mask0_671_5692)">
<path d="M5.83317 14.9583L9.99984 13.1667L14.1665 14.9583V4.16667H5.83317V14.9583ZM5.33317 17C5.05539 17.1111 4.7915 17.0867 4.5415 16.9267C4.2915 16.7672 4.1665 16.5347 4.1665 16.2292V4.16667C4.1665 3.70833 4.32984 3.31583 4.6565 2.98917C4.98261 2.66306 5.37484 2.5 5.83317 2.5H14.1665C14.6248 2.5 15.0173 2.66306 15.344 2.98917C15.6701 3.31583 15.8332 3.70833 15.8332 4.16667V16.2292C15.8332 16.5347 15.7082 16.7672 15.4582 16.9267C15.2082 17.0867 14.9443 17.1111 14.6665 17L9.99984 15L5.33317 17Z" fill="#1C1B1F"/>
</g>
</svg>
