<svg width="41" height="40" viewBox="0 0 41 40" fill="none" xmlns="http://www.w3.org/2000/svg">
<g clip-path="url(#clip0_671_5553)">
<path d="M7.11127 5.66628C11.5391 2.71628 17.0085 1.54684 22.2724 1.93851C26.7279 2.24128 31.1502 3.74684 34.7029 6.48295C37.6557 8.68295 39.8668 11.9718 40.3335 15.6718V24.3191C39.8863 27.883 37.8141 31.0663 35.0252 33.2663C28.2141 38.6524 18.4252 39.4885 10.5141 36.1774C6.81961 34.5468 3.34183 31.9524 1.53072 28.258C0.908496 27.0246 0.564052 25.6802 0.333496 24.3274V15.6913C0.841829 11.4913 3.61961 7.90239 7.11127 5.66628ZM8.04739 7.98295C5.64739 9.66073 3.62516 12.0968 3.01127 15.0135C2.70572 16.7746 2.99461 18.5691 2.94739 20.3357C2.88072 21.9774 2.72794 23.6607 3.08627 25.2802C3.87794 28.6274 6.49739 31.2024 9.39461 32.8746C15.3168 36.1635 22.7141 36.4663 28.9807 33.9857C32.8363 32.4107 36.5502 29.483 37.5918 25.2746C37.9279 23.6524 37.8029 21.9746 37.7168 20.333C37.6918 19.1107 37.8724 17.8913 37.7891 16.6663C37.8724 13.983 36.4391 11.5024 34.6141 9.63851C31.2641 6.38017 26.6085 4.74684 22.0057 4.42462C17.1474 4.10517 12.0891 5.18017 8.04739 7.98295Z" fill="white"/>
<path d="M8.04756 7.98382C12.0892 5.18104 17.1476 4.10604 22.0059 4.42549C26.6087 4.74771 31.2642 6.38104 34.6142 9.63938C36.4392 11.5033 37.8726 13.9838 37.7892 16.6672C37.8726 17.8922 37.692 19.1116 37.717 20.3338C37.242 20.9838 37.1503 21.8172 36.7364 22.5033C34.8559 26.0144 31.2781 28.2755 27.5864 29.5088C22.9003 31.0033 17.7503 30.9922 13.0642 29.5088C9.38367 28.2644 5.81145 26.0088 3.93367 22.5033C3.51978 21.8199 3.43367 20.9783 2.94756 20.3366C2.99478 18.5699 2.70589 16.7755 3.01145 15.0144C3.62534 12.0977 5.64756 9.6616 8.04756 7.98382ZM19.0864 8.59493C19.1198 8.74771 19.1837 9.05327 19.217 9.20327C20.1003 9.75327 20.6253 8.55882 21.2198 8.10326C21.8198 7.75604 21.5726 6.88938 20.8976 6.85604C20.1587 7.25604 19.5976 7.93938 19.0864 8.59493ZM10.642 9.47826C10.1448 9.70882 10.3531 10.4533 10.7531 10.6894C11.3226 11.0977 11.7392 12.1394 12.5726 11.7755C13.2392 11.0283 12.2309 10.431 11.7753 9.94215C11.4809 9.69493 11.0476 9.08938 10.642 9.47826ZM26.5781 11.4144C27.1114 12.0699 27.7059 12.7005 28.3976 13.1894C28.817 13.0394 29.2559 12.7283 29.0476 12.2144C28.5948 11.7116 28.1087 11.2449 27.6309 10.7699C27.2031 10.3922 26.4087 10.8338 26.5781 11.4144ZM17.0198 13.731C15.9753 14.1172 14.9114 14.7088 14.3698 15.7255C13.8281 16.6949 14.1031 17.9922 14.9142 18.7255C16.4726 20.2588 18.792 20.7033 20.9059 20.6227C22.6392 20.4672 24.5003 20.0227 25.7448 18.7199C26.5031 18.0366 26.8309 16.8394 26.3809 15.9005C26.0114 15.031 25.2142 14.4394 24.3892 14.0366C22.1031 12.9588 19.3864 12.8449 17.0198 13.731ZM32.9503 15.8977C32.6059 16.7755 33.7226 17.2533 34.1753 17.8366C34.5587 18.4644 35.5337 17.9672 35.2726 17.2922C35.0087 16.7644 34.4642 16.4255 34.0837 15.9783C33.8476 15.6005 33.1976 15.4755 32.9503 15.8977ZM5.55034 18.2866C5.07534 18.7227 5.52534 19.5922 6.18089 19.3505C6.73367 18.9338 7.192 18.406 7.67534 17.9116C7.96978 17.5172 7.742 16.9505 7.26422 16.856C6.51978 17.0699 6.09478 17.7866 5.55034 18.2866ZM28.1837 23.1449C27.817 23.3949 27.7809 23.9005 28.0364 24.2449C28.8864 24.7005 29.3531 23.606 29.917 23.1783C30.4253 22.8672 30.4364 21.9977 29.7976 21.831C29.0948 22.0005 28.7114 22.7033 28.1837 23.1449ZM13.067 23.2533C12.5809 23.7283 12.1003 24.2088 11.6337 24.706C11.3809 25.181 11.8253 25.631 12.2892 25.656C12.9392 25.2783 13.4087 24.6616 13.9281 24.1338C14.4809 23.6088 13.5948 22.8227 13.067 23.2533ZM20.5531 26.7283C21.1031 27.2227 21.5309 27.9505 22.2781 28.1616C22.7309 28.0394 22.9614 27.5033 22.6837 27.1088C22.217 26.5949 21.7281 26.0949 21.192 25.6505C20.5198 25.406 20.0726 26.2838 20.5531 26.7283Z" fill="#8E562E"/>
<path d="M19.0864 8.59436C19.5975 7.9388 20.1586 7.25547 20.8975 6.85547C21.5725 6.8888 21.8198 7.75547 21.2198 8.10269C20.6253 8.55825 20.1003 9.75269 19.217 9.20269C19.1836 9.05269 19.1198 8.74714 19.0864 8.59436Z" fill="#E6808A"/>
<path d="M32.9502 15.8974C33.1974 15.4752 33.8474 15.6002 34.0835 15.978C34.4641 16.4252 35.0085 16.7641 35.2724 17.2919C35.5335 17.9669 34.5585 18.4641 34.1752 17.8363C33.7224 17.253 32.6057 16.7752 32.9502 15.8974Z" fill="#E6808A"/>
<path d="M5.55045 18.286C6.09489 17.786 6.51989 17.0694 7.26434 16.8555C7.74211 16.9499 7.96989 17.5166 7.67545 17.911C7.19211 18.4055 6.73378 18.9332 6.181 19.3499C5.52545 19.5916 5.07545 18.7221 5.55045 18.286Z" fill="#E6808A"/>
<path d="M20.5532 26.7274C20.0726 26.283 20.5199 25.4052 21.1921 25.6496C21.7282 26.0941 22.2171 26.5941 22.6838 27.108C22.9615 27.5024 22.731 28.0385 22.2782 28.1607C21.531 27.9496 21.1032 27.2219 20.5532 26.7274Z" fill="#E6808A"/>
<path d="M10.6418 9.47757C11.0474 9.08868 11.4807 9.69424 11.7751 9.94146C12.2307 10.4303 13.239 11.0276 12.5724 11.7748C11.739 12.1387 11.3224 11.097 10.7529 10.6887C10.3529 10.4526 10.1446 9.70813 10.6418 9.47757Z" fill="#31D2F7"/>
<path d="M26.5775 11.4138C26.4081 10.8332 27.2025 10.3916 27.6303 10.7694C28.1081 11.2444 28.5942 11.711 29.047 12.2138C29.2553 12.7277 28.8164 13.0388 28.397 13.1888C27.7053 12.6999 27.1109 12.0694 26.5775 11.4138Z" fill="#31D2F7"/>
<path d="M28.1836 23.1449C28.7114 22.7033 29.0947 22.0005 29.7975 21.8311C30.4364 21.9977 30.4253 22.8672 29.9169 23.1783C29.3531 23.6061 28.8864 24.7005 28.0364 24.2449C27.7808 23.9005 27.8169 23.3949 28.1836 23.1449Z" fill="#31D2F7"/>
<path d="M13.0663 23.2531C13.5941 22.8225 14.4802 23.6086 13.9274 24.1336C13.408 24.6614 12.9385 25.2781 12.2885 25.6558C11.8247 25.6308 11.3802 25.1808 11.633 24.7058C12.0997 24.2086 12.5802 23.7281 13.0663 23.2531Z" fill="#31D2F7"/>
<path d="M17.0195 13.7307C19.3862 12.8446 22.1029 12.9585 24.389 14.0363C25.214 14.4391 26.0112 15.0307 26.3807 15.9002C26.8307 16.8391 26.5029 18.0363 25.7445 18.7196C22.7473 16.2169 17.9057 16.2113 14.914 18.7252C14.1029 17.9919 13.8279 16.6946 14.3695 15.7252C14.9112 14.7085 15.9751 14.1169 17.0195 13.7307Z" fill="#EBA300"/>
<path d="M2.94739 20.3358C3.43351 20.9775 3.51962 21.8191 3.93351 22.5025C5.81128 26.008 9.38351 28.2636 13.0641 29.508C17.7502 30.9913 22.9002 31.0025 27.5863 29.508C31.2779 28.2747 34.8557 26.0136 36.7363 22.5025C37.1502 21.8163 37.2418 20.983 37.7168 20.333C37.8029 21.9747 37.9279 23.6525 37.5918 25.2747C36.5502 29.483 32.8363 32.4108 28.9807 33.9858C22.7141 36.4663 15.3168 36.1636 9.39462 32.8747C6.49739 31.2025 3.87795 28.6275 3.08628 25.2802C2.72795 23.6608 2.88073 21.9775 2.94739 20.3358Z" fill="#EBA300"/>
<path d="M14.9136 18.7248C17.9052 16.211 22.7469 16.2165 25.7441 18.7193C24.4997 20.0221 22.6386 20.4665 20.9052 20.6221C18.7914 20.7026 16.4719 20.2582 14.9136 18.7248Z" fill="white"/>
</g>
<defs>
<clipPath id="clip0_671_5553">
<rect width="40" height="40" fill="white" transform="translate(0.333496)"/>
</clipPath>
</defs>
</svg>
