<svg viewBox="0 0 41 40">
<g>
<path d="M3.36961 0H37.0974C38.7196 0.258333 40.0418 1.59722 40.3335 3.20556V4.22778C40.0613 5.43889 39.3168 6.45 38.7002 7.5C36.4474 11.2806 34.1779 15.05 31.9363 18.8361C33.3085 21.0972 34.1446 23.7111 34.0918 26.3722C34.0779 30.2361 32.3085 34.0389 29.3974 36.5694C27.1502 38.5694 24.2252 39.7556 21.2391 40H19.4752C16.0752 39.7472 12.7696 38.2333 10.4196 35.75C7.39183 32.6444 5.98072 28.0389 6.8085 23.7722C7.1085 22.0139 7.8335 20.3667 8.73627 18.8389C6.53627 15.1111 4.3085 11.4056 2.09739 7.68889C1.45572 6.58611 0.683496 5.53333 0.333496 4.28889V3.28611C0.564052 1.68333 1.83627 0.416667 3.36961 0V0ZM3.49183 2.64722C2.74461 3.01111 2.72516 4.02778 3.17516 4.63889C6.03072 9.41944 8.89183 14.1972 11.7391 18.9861C10.0863 20.975 9.08905 23.5194 9.08627 26.1139C9.00294 29.6139 10.7279 33.0722 13.5141 35.175C17.1085 38.0306 22.5168 38.2528 26.3529 35.7444C29.5085 33.7583 31.5863 30.1333 31.5835 26.3889C31.6474 23.7028 30.6446 21.0444 28.9335 18.9861C31.8057 14.1361 34.7141 9.30556 37.5835 4.45278C38.0224 3.81389 37.7807 2.75833 36.9724 2.575C36.3113 2.45278 35.6196 2.37778 34.9557 2.48611L34.7307 2.62222L34.5891 2.5C33.8529 2.43056 33.1141 2.46944 32.3779 2.43611L32.2141 2.69444L32.3474 2.47778C31.0891 2.44722 29.8307 2.46667 28.5752 2.45556L28.5224 2.54722C26.3529 2.36111 24.1696 2.50556 21.9946 2.46111C18.7113 2.51111 15.4252 2.35278 12.1474 2.54444L12.1002 2.45833C10.8418 2.46667 9.5835 2.44722 8.32516 2.47778L8.4585 2.69444L8.29461 2.43333C7.48072 2.46667 6.66961 2.46389 5.8585 2.46944L5.99461 2.72222L5.83627 2.43333C5.05572 2.475 4.23905 2.37778 3.49183 2.64722V2.64722Z" fill="white"/>
<path d="M15.0503 7.47786C18.5725 7.45009 22.0947 7.45009 25.6197 7.47786C25.5558 7.59453 25.4281 7.82786 25.3642 7.94453C23.9836 10.3223 22.5697 12.6806 21.1836 15.0556C20.617 15.0306 20.0531 15.0306 19.4892 15.0556C18.1031 12.6779 16.6864 10.3168 15.3031 7.9362C15.242 7.82231 15.1142 7.59175 15.0503 7.47786V7.47786Z" fill="black"/>
<path d="M3.49221 2.64651C4.23943 2.37706 5.05609 2.47428 5.83665 2.43262L5.99498 2.72151C8.71721 7.42428 11.5089 12.0854 14.2394 16.7854C13.3117 17.3993 12.4644 18.1409 11.7394 18.9854C8.89221 14.1965 6.03109 9.41873 3.17554 4.63817C2.72554 4.02706 2.74498 3.01039 3.49221 2.64651V2.64651Z" fill="#F03A17"/>
<path d="M8.45902 2.69412L8.32568 2.47745C9.58402 2.4469 10.8424 2.46634 12.1007 2.45801L12.1479 2.54412C13.1701 4.36079 14.2396 6.1469 15.3035 7.93579C16.6868 10.3163 18.1035 12.6775 19.4896 15.0552C18.3479 15.1247 17.2201 15.3775 16.159 15.8025C13.6146 11.4191 11.034 7.05801 8.45902 2.69412V2.69412Z" fill="#F03A17"/>
<path d="M28.5225 2.54674L28.5753 2.45508C29.8308 2.46619 31.0891 2.44674 32.3475 2.4773L32.2141 2.69397C29.6364 7.05786 27.0642 11.4217 24.5142 15.8023C23.4503 15.3773 22.3253 15.1245 21.1836 15.0551C22.5697 12.6801 23.9836 10.3217 25.3641 7.94397C26.4308 6.1523 27.5003 4.36341 28.5225 2.54674V2.54674Z" fill="#F03A17"/>
<path d="M34.731 2.621L34.956 2.48489C35.6199 2.37656 36.3116 2.45156 36.9727 2.57378C37.781 2.75711 38.0227 3.81267 37.5838 4.45156C34.7143 9.30433 31.806 14.1349 28.9338 18.9849C28.2088 18.1377 27.3616 17.396 26.4282 16.7849C29.1754 12.0516 31.9949 7.35989 34.731 2.621V2.621Z" fill="#F03A17"/>
<path d="M5.99451 2.72248L5.8584 2.4697C6.66951 2.46415 7.48062 2.46693 8.29451 2.43359L8.4584 2.6947C11.0334 7.05859 13.614 11.4197 16.1584 15.803C15.4973 16.0864 14.8528 16.4086 14.239 16.7864C11.5084 12.0864 8.71673 7.42526 5.99451 2.72248V2.72248Z" fill="white"/>
<path d="M32.2142 2.69486L32.378 2.43652C33.1142 2.46986 33.853 2.43097 34.5892 2.50041L34.7308 2.62263C31.9947 7.36152 29.1753 12.0532 26.428 16.7865C25.8142 16.4115 25.1753 16.0837 24.5142 15.8032C27.0642 11.4226 29.6364 7.05875 32.2142 2.69486V2.69486Z" fill="white"/>
<path d="M12.1475 2.54403C15.4252 2.35236 18.7114 2.51069 21.9947 2.46069C24.1697 2.50514 26.353 2.3607 28.5225 2.54681C27.5002 4.36347 26.4308 6.15236 25.3641 7.94403C25.428 7.82736 25.5558 7.59403 25.6197 7.47736C22.0947 7.44958 18.5725 7.44958 15.0502 7.47736C15.1141 7.59125 15.2419 7.82181 15.303 7.9357C14.2391 6.14681 13.1697 4.3607 12.1475 2.54403Z" fill="#AF0D1A"/>
<path d="M16.1586 15.8031C17.2197 15.3781 18.3475 15.1253 19.4892 15.0559C20.0531 15.0309 20.6169 15.0309 21.1836 15.0559C22.3253 15.1253 23.4503 15.3781 24.5142 15.8031C25.1753 16.0836 25.8142 16.4114 26.4281 16.7864C27.3614 17.3975 28.2086 18.1392 28.9336 18.9864C30.6447 21.0447 31.6475 23.7031 31.5836 26.3892C31.5864 30.1336 29.5086 33.7586 26.3531 35.7447C22.5169 38.2531 17.1086 38.0309 13.5142 35.1753C10.7281 33.0725 9.00305 29.6142 9.08639 26.1142C9.08916 23.5197 10.0864 20.9753 11.7392 18.9864C12.4642 18.142 13.3114 17.4003 14.2392 16.7864C14.8531 16.4086 15.4975 16.0864 16.1586 15.8031V15.8031ZM18.4697 18.9836C15.3058 19.7697 12.8169 22.8114 12.8697 26.1003C12.7336 28.7614 14.2253 31.3892 16.5253 32.7086C19.1614 34.3336 22.7836 34.0225 25.1364 32.0197C27.7642 29.9225 28.5642 25.9725 27.0808 22.9809C25.6142 19.8447 21.8197 18.0475 18.4697 18.9836Z" fill="#FFB900"/>
<path d="M17.7279 23.6579C17.6474 22.6245 18.2974 21.7384 19.189 21.2884C19.9779 21.1857 20.7752 21.2468 21.5668 21.2551C21.6141 23.7301 21.5557 26.2051 21.5918 28.6801C22.0168 28.7245 22.4446 28.769 22.8696 28.8162C22.8724 29.6218 22.8613 30.4273 22.8335 31.2329C21.1557 31.2634 19.4779 31.2634 17.8002 31.2301C17.7918 30.4607 17.7418 29.6857 17.8446 28.919C18.189 28.6662 18.6724 28.7551 19.0724 28.6523C19.0974 27.044 19.0863 25.4357 19.0807 23.8273C18.6307 23.7718 18.1779 23.7134 17.7279 23.6579V23.6579Z" fill="#FFB900"/>
<path d="M18.4694 18.9833C21.8194 18.0472 25.6139 19.8444 27.0805 22.9805C28.5639 25.9722 27.7639 29.9222 25.1361 32.0194C22.7833 34.0222 19.1611 34.3333 16.525 32.7083C14.225 31.3889 12.7333 28.7611 12.8694 26.1C12.8167 22.8111 15.3055 19.7694 18.4694 18.9833ZM17.7278 23.6583C18.1778 23.7139 18.6305 23.7722 19.0805 23.8278C19.0861 25.4361 19.0972 27.0444 19.0722 28.6528C18.6722 28.7555 18.1889 28.6666 17.8444 28.9194C17.7417 29.6861 17.7917 30.4611 17.8 31.2305C19.4778 31.2639 21.1555 31.2639 22.8333 31.2333C22.8611 30.4278 22.8722 29.6222 22.8694 28.8166C22.4444 28.7694 22.0167 28.725 21.5917 28.6805C21.5555 26.2055 21.6139 23.7305 21.5667 21.2555C20.775 21.2472 19.9778 21.1861 19.1889 21.2889C18.2972 21.7389 17.6472 22.625 17.7278 23.6583V23.6583Z" fill="#D48C00"/>
</g>
</svg>
