<svg width="41" height="40" viewBox="0 0 41 40" fill="none" xmlns="http://www.w3.org/2000/svg">
<path d="M9.69988 0H11.7332C12.8249 0.191667 13.8721 0.572222 14.8777 1.03889C16.7082 0.494444 18.5943 0.105556 20.5054 0H23.3277C25.5499 0.138889 27.7527 0.597222 29.8415 1.36667C30.4221 0.766667 31.0915 0.233333 31.9082 0H36.8693C38.9054 0.375 40.1304 2.89722 39.0165 4.68056C38.3249 5.97778 36.7943 6.39722 35.4221 6.28611C35.8165 8.05278 35.6832 9.86945 35.6999 11.6639C35.6554 13.4306 35.6749 15.2333 35.1443 16.9417C34.0277 20.8889 31.0527 24.275 27.2415 25.8111C26.6499 26.0278 26.061 26.2556 25.5304 26.5972C27.686 27.1361 29.9304 28.0778 31.1915 30.0083C32.0332 31.225 31.9749 32.7694 31.8971 34.1806C31.7832 35.8194 30.6638 37.2194 29.3304 38.0944C27.4804 39.3139 25.2527 39.8306 23.0665 40H20.3638C17.5971 39.6361 14.5527 38.8417 12.8054 36.4861C11.7415 35.1167 11.8221 33.2889 11.986 31.6583C12.4082 29.4028 14.4721 27.8917 16.511 27.1528C17.0804 26.9 17.7915 26.8944 18.2277 26.4056C13.8527 25.1694 10.2027 21.7028 8.81376 17.3639C6.79154 16.8167 4.88876 15.7083 3.6471 13.9944C1.55821 11.2667 1.33043 7.29167 3.09154 4.34444C4.45265 1.95278 6.99432 0.363889 9.69988 0ZM32.3443 2.50278C31.6471 3.06111 31.4943 4.04444 31.0638 4.79722C29.0971 3.56111 26.8221 2.9 24.5277 2.63889C21.4804 2.37222 18.3332 2.475 15.4304 3.525C15.0749 3.61667 14.7082 3.87222 14.336 3.71389C12.9332 2.55278 10.9915 2.33333 9.25265 2.64722C7.01099 3.14722 5.12765 4.98611 4.59154 7.21944C4.06099 9.28056 4.65821 11.6 6.17488 13.1056C7.35821 14.3583 9.07488 15.0583 10.7999 14.9861C11.5415 19.8361 15.7749 23.8417 20.6554 24.3306C20.7332 25.8111 20.5943 27.2917 20.6332 28.7722C18.6332 29.0333 16.4582 29.4722 15.0165 30.9972C14.3415 31.6583 14.3999 32.625 14.4138 33.4944C14.3693 34.0972 14.5471 34.7028 14.9499 35.1583C16.0054 36.4 17.6332 36.9306 19.1777 37.2611C21.8332 37.7056 24.6777 37.5944 27.1527 36.4528C28.2943 35.9 29.5527 34.9083 29.4193 33.4917C29.4304 32.6278 29.4915 31.6667 28.8249 31.0056C27.3693 29.45 25.1554 29.0389 23.1388 28.7528C23.1027 27.3278 23.186 25.9 23.0888 24.4778L23.3499 24.5056L23.0304 24.3778C25.3777 24.0583 27.6721 23.1306 29.4304 21.5167C31.8915 19.3278 33.3499 16.0167 33.1277 12.7139C33.1388 12.3222 33.1332 11.9306 33.1165 11.5417C33.2915 10.8361 33.1888 10.1056 33.1138 9.39444C33.1193 8.75556 33.1721 8.11111 33.0888 7.47222C32.9832 6.69722 32.3332 6.14167 32.1915 5.375C32.4443 4.83333 32.7082 4.29444 32.9554 3.75C34.0471 3.73889 35.1415 3.76667 36.2332 3.74722C36.8304 3.85278 37.0027 3.16389 36.9138 2.71389C35.4638 2.20278 33.8527 2.54167 32.3443 2.50278Z" fill="white"/>
<path d="M32.3441 2.5022C33.8524 2.54109 35.4635 2.2022 36.9135 2.71331C37.0024 3.16331 36.8302 3.8522 36.233 3.74664C35.1413 3.76609 34.0469 3.73831 32.9552 3.74942C32.708 4.29386 32.4441 4.83275 32.1913 5.37442C31.908 5.99387 31.6219 6.61331 31.333 7.23275C31.1497 7.64109 30.9524 8.04664 30.758 8.44942C30.3247 9.35775 29.8997 10.2716 29.5135 11.1994C29.158 11.3828 28.7969 11.555 28.4247 11.6966C28.2663 11.7411 27.9552 11.83 27.7969 11.8744C27.933 11.5439 28.0691 11.2161 28.2052 10.8855C28.6913 9.83275 29.2052 8.79109 29.6858 7.73553C29.8385 7.4022 29.9969 7.06886 30.1552 6.73831C30.3274 6.37442 30.5024 6.01331 30.6719 5.64942C30.8052 5.36609 30.9358 5.07998 31.0635 4.79664C31.4941 4.04387 31.6469 3.06053 32.3441 2.5022Z" fill="#CA5010"/>
<path d="M27.15 13.1307C27.7083 12.9724 28.2583 12.7918 28.8028 12.5918C28.5417 13.1807 28.2639 13.7612 27.9805 14.339C27.5583 15.1612 27.2055 16.0168 26.8417 16.8668C25.95 18.7362 25.125 20.6418 24.1694 22.4807C23.7 22.5029 23.0028 22.3612 23.2305 21.7251C23.7611 20.2057 24.5639 18.789 25.2083 17.3112C25.4889 16.7196 25.7611 16.1224 26.0389 15.5307C26.4194 14.7335 26.7889 13.9362 27.15 13.1307Z" fill="#CA5010"/>
<path d="M4.59137 7.21939C5.12748 4.98606 7.01081 3.14717 9.25248 2.64717C10.9914 2.33328 12.933 2.55272 14.3358 3.71384C14.6747 3.97495 14.9941 4.25828 15.2997 4.55828C15.6303 4.93884 15.9303 5.34161 16.1997 5.76661C17.2053 7.68884 17.1469 10.0555 16.0886 11.9416C15.3191 11.6777 14.5691 11.3527 13.8553 10.9583C14.408 9.70272 14.7358 8.20272 13.983 6.95272C12.9525 4.89439 9.9247 4.36384 8.2247 5.88884C6.64137 7.14439 6.46359 9.69717 7.80248 11.1944C8.49137 12.0777 9.61081 12.3833 10.6636 12.5694L10.6719 12.7305C10.6914 13.4833 10.7303 14.2361 10.7997 14.9861C9.0747 15.0583 7.35803 14.3583 6.1747 13.1055C4.65803 11.5999 4.06081 9.2805 4.59137 7.21939Z" fill="#8CBD18"/>
<path d="M15.4304 3.5245C18.3332 2.4745 21.4804 2.37172 24.5276 2.63839C26.8221 2.8995 29.097 3.56061 31.0637 4.79672C30.9359 5.08006 30.8054 5.36617 30.672 5.6495C26.0637 2.96339 20.2693 2.86061 15.2998 4.55783C14.9943 4.25783 14.6748 3.9745 14.3359 3.71339C14.7082 3.87172 15.0748 3.61617 15.4304 3.5245Z" fill="#F3F3F3"/>
<path d="M15.2998 4.55837C20.2692 2.86115 26.0637 2.96393 30.672 5.65004C30.5026 6.01393 30.3276 6.37504 30.1554 6.73893C25.8359 4.70559 20.7665 4.51393 16.1998 5.7667C15.9304 5.3417 15.6304 4.93893 15.2998 4.55837Z" fill="#CCCCCC"/>
<path d="M22.1304 24.5331C22.372 24.5192 22.8498 24.4914 23.0887 24.4775C23.1859 25.8998 23.1026 27.3275 23.1387 28.7525C23.1526 29.7192 23.2609 30.6998 23.0831 31.6581C23.0109 32.2136 22.397 32.3553 21.9887 32.5914C21.8359 30.0359 21.9554 27.4748 21.9081 24.9164C21.9637 24.822 22.0748 24.6303 22.1304 24.5331Z" fill="#CCCCCC"/>
<path d="M14.4139 33.495C15.7139 34.745 17.3111 35.6894 19.1083 35.97C22.6556 36.6366 26.7917 36.2144 29.4194 33.4922C29.5528 34.9089 28.2944 35.9005 27.1528 36.4533C24.6778 37.595 21.8333 37.7061 19.1778 37.2616C17.6333 36.9311 16.0056 36.4005 14.95 35.1589C14.5472 34.7033 14.3694 34.0977 14.4139 33.495Z" fill="#CCCCCC"/>
<path d="M8.22473 5.88933C9.92473 4.36433 12.9525 4.89488 13.9831 6.95322C14.7358 8.20322 14.4081 9.70322 13.8553 10.9588C12.7775 10.331 11.7914 9.41433 11.5358 8.13933C11.2608 8.13655 10.9886 8.13099 10.7136 8.12822C10.7164 8.56711 10.722 9.00599 10.7108 9.44488C10.6886 10.0838 10.647 10.7227 10.672 11.3588C10.672 11.7643 10.6692 12.1671 10.6636 12.5699C9.61084 12.3838 8.4914 12.0782 7.80251 11.1949C6.46362 9.69766 6.6414 7.14488 8.22473 5.88933Z" fill="#BAD80A"/>
<path d="M16.2 5.76655C20.7666 4.51378 25.8361 4.70544 30.1555 6.73878C29.9972 7.06933 29.8389 7.40266 29.6861 7.736C29.1916 7.65544 28.6972 7.57489 28.2055 7.49433C28.1416 8.62489 28.1916 9.75544 28.2055 10.886C28.0694 11.2166 27.9333 11.5443 27.7972 11.8749C27.9555 11.8304 28.2666 11.7416 28.425 11.6971C28.0222 11.8499 27.6139 11.9916 27.2 12.111C27.05 10.8471 26.5555 9.65266 25.6972 8.70822C25.0222 9.37211 24.3555 10.0471 23.6916 10.7249C23.0889 8.23878 20.775 6.32489 18.2194 6.20544C18.0944 8.286 18.2333 10.3693 18.1166 12.4499C17.4333 12.311 16.7583 12.1416 16.0889 11.9416C17.1472 10.0554 17.2055 7.68877 16.2 5.76655Z" fill="#F7B189"/>
<path d="M30.7583 8.45006C30.9527 8.04729 31.15 7.64173 31.3333 7.2334C31.6472 7.59729 31.9639 7.96395 32.2833 8.32506C32.0777 8.78062 31.8722 9.23895 31.6083 9.66673C31.3222 9.26118 31.0389 8.8584 30.7583 8.45006Z" fill="#F7B189"/>
<path d="M10.7112 9.44434C11.4445 10.1804 12.1001 11.0138 12.989 11.5693C14.5473 12.5554 16.3362 13.1027 18.1362 13.4443C18.1334 14.2666 18.1334 15.086 18.1306 15.9082C15.2528 15.3666 11.9501 14.2554 10.6723 11.3582C10.6473 10.7221 10.689 10.0832 10.7112 9.44434Z" fill="#F7B189"/>
<path d="M18.7584 18.9162C19.5306 18.3829 20.7806 19.0384 20.6417 20.019C20.75 20.9829 19.5222 21.6023 18.7639 21.0857C17.9834 20.6718 17.9806 19.3357 18.7584 18.9162Z" fill="#F7B189"/>
<path d="M31.3332 7.23333C31.6221 6.61389 31.9082 5.99444 32.1915 5.375C32.3332 6.14167 32.9832 6.69722 33.0887 7.47222C33.172 8.11111 33.1193 8.75556 33.1137 9.39444C32.6526 9.89167 32.2109 10.4056 31.7415 10.8944C30.8721 11.6333 29.8554 12.1722 28.8026 12.5917C28.2582 12.7917 27.7082 12.9722 27.1498 13.1306C26.3026 13.35 25.4359 13.4778 24.5693 13.6028C22.4332 13.8556 20.2554 13.8056 18.1359 13.4444C16.3359 13.1028 14.547 12.5556 12.9887 11.5694C12.0998 11.0139 11.4443 10.1806 10.7109 9.44444C10.722 9.00556 10.7165 8.56667 10.7137 8.12778C10.9887 8.13056 11.2609 8.13611 11.5359 8.13889C11.7915 9.41389 12.7776 10.3306 13.8554 10.9583C14.5693 11.3528 15.3193 11.6778 16.0887 11.9417C16.7582 12.1417 17.4332 12.3111 18.1165 12.45C19.997 12.7806 21.922 12.9306 23.822 12.7083C24.9637 12.6222 26.0943 12.4111 27.1998 12.1111C27.6137 11.9917 28.022 11.85 28.4248 11.6972C28.7971 11.5556 29.1582 11.3833 29.5137 11.2C30.2915 10.8056 30.9998 10.2889 31.6082 9.66667C31.872 9.23889 32.0776 8.78056 32.2832 8.325C31.9637 7.96389 31.6471 7.59722 31.3332 7.23333Z" fill="#F2F2F3"/>
<path d="M18.219 6.20508C20.7745 6.32452 23.0884 8.23841 23.6912 10.7245C23.7607 11.3829 23.7829 12.0467 23.8218 12.7079C21.9218 12.9301 19.9968 12.7801 18.1162 12.4495C18.2329 10.369 18.094 8.28563 18.219 6.20508Z" fill="#13A10E"/>
<path d="M18.1304 15.9082C18.1331 15.086 18.1331 14.2666 18.1359 13.4443C20.2554 13.8054 22.4332 13.8554 24.5693 13.6027C23.1443 13.7221 22.6609 15.2416 21.9443 16.2416C20.6637 16.2499 19.3859 16.1388 18.1304 15.9082Z" fill="#13A10E"/>
<path d="M28.2056 7.49414C28.6972 7.5747 29.1917 7.65525 29.6861 7.73581C29.2056 8.79136 28.6917 9.83303 28.2056 10.8858C28.1917 9.75525 28.1417 8.6247 28.2056 7.49414Z" fill="#FFC83C"/>
<path d="M29.5137 11.2002C29.8998 10.2724 30.3248 9.35853 30.7581 8.4502C31.0387 8.85853 31.322 9.26131 31.6081 9.66686C30.9998 10.2891 30.2914 10.8058 29.5137 11.2002Z" fill="#FFC83D"/>
<path d="M28.8027 12.5918C29.8555 12.1723 30.8721 11.6334 31.7416 10.8945C32.1444 11.7723 31.5916 12.6751 31.411 13.5362C30.4444 14.2473 29.4138 15.0723 28.1499 15.0723C28.1082 14.889 28.0249 14.5223 27.9805 14.339C28.2638 13.7612 28.5416 13.1806 28.8027 12.5918Z" fill="#FFC83D"/>
<path d="M23.6914 10.7247C24.3553 10.0469 25.022 9.3719 25.697 8.70801C26.5553 9.65245 27.0497 10.8469 27.1997 12.1108C26.0942 12.4108 24.9636 12.6219 23.822 12.708C23.7831 12.0469 23.7609 11.383 23.6914 10.7247Z" fill="#107C10"/>
<path d="M24.5693 13.6031C25.436 13.4781 26.3027 13.3503 27.1499 13.1309C26.7888 13.9364 26.4193 14.7336 26.0388 15.5309C24.8832 16.3975 23.3027 16.1225 21.9443 16.242C22.661 15.242 23.1443 13.7225 24.5693 13.6031Z" fill="#107C10"/>
<path d="M31.7417 10.8945C32.2111 10.4056 32.6528 9.89175 33.1139 9.39453C33.1889 10.1056 33.2917 10.8362 33.1167 11.5418C32.7 12.3195 32.1417 13.0279 31.4111 13.5362C31.5917 12.6751 32.1445 11.7723 31.7417 10.8945Z" fill="#F7B18A"/>
<path d="M10.6719 11.3584C11.9497 14.2556 15.2525 15.3667 18.1302 15.9084C19.3858 16.139 20.6636 16.2501 21.9441 16.2417C23.3025 16.1223 24.883 16.3973 26.0386 15.5306C25.7608 16.1223 25.4886 16.7195 25.208 17.3112C21.2386 17.7334 16.9969 17.5473 13.4275 15.5834C12.2275 14.9556 11.2858 13.9278 10.6719 12.7306L10.6636 12.5695C10.6691 12.1667 10.6719 11.764 10.6719 11.3584Z" fill="#F7894A"/>
<path d="M31.4112 13.5364C32.1418 13.0281 32.7001 12.3198 33.1168 11.542C33.1335 11.9309 33.139 12.3225 33.1279 12.7142C32.0335 15.1614 29.3446 16.4031 26.8418 16.867C27.2057 16.017 27.5585 15.1614 27.9807 14.3392C28.0251 14.5225 28.1085 14.8892 28.1501 15.0725C29.414 15.0725 30.4446 14.2475 31.4112 13.5364Z" fill="#F7894A"/>
<path d="M28.8248 17.6247C29.5665 17.2913 30.6415 17.7025 30.6359 18.608C30.7971 19.408 30.0471 20.133 29.2554 19.9691C28.0582 19.9608 27.7943 18.0969 28.8248 17.6247Z" fill="#F7894A"/>
<path d="M10.6719 12.7305C11.2858 13.9278 12.2274 14.9555 13.4274 15.5833C16.9969 17.5472 21.2385 17.7333 25.208 17.3111C24.5635 18.7889 23.7608 20.2055 23.2302 21.725C23.0024 22.3611 23.6997 22.5028 24.1691 22.4805C25.1247 20.6416 25.9497 18.7361 26.8413 16.8666C29.3441 16.4028 32.033 15.1611 33.1274 12.7139C33.3497 16.0166 31.8913 19.3278 29.4302 21.5166C27.6719 23.1305 25.3774 24.0583 23.0302 24.3778C22.2413 24.2889 21.4469 24.3194 20.6552 24.3305C15.7747 23.8416 11.5413 19.8361 10.7997 14.9861C10.7302 14.2361 10.6913 13.4833 10.6719 12.7305ZM13.2691 17.5972C13.2552 17.9194 13.2358 18.2444 13.2135 18.5666C13.683 18.8778 14.1941 18.75 14.4969 18.2833C14.4024 18.0416 14.3108 17.8 14.2135 17.5583C13.8997 17.5722 13.5858 17.5833 13.2691 17.5972ZM28.8247 17.625C27.7941 18.0972 28.058 19.9611 29.2552 19.9694C30.0469 20.1333 30.7969 19.4083 30.6358 18.6083C30.6413 17.7028 29.5663 17.2916 28.8247 17.625ZM18.758 18.9166C17.9802 19.3361 17.983 20.6722 18.7635 21.0861C19.5219 21.6028 20.7497 20.9833 20.6413 20.0194C20.7802 19.0389 19.5302 18.3833 18.758 18.9166ZM15.758 20.1166C15.7497 20.4278 15.7358 20.7389 15.7219 21.05C15.9719 21.1361 16.2163 21.2333 16.4552 21.3389C16.8969 21.0111 17.0608 20.5083 16.7191 20.0389C16.3969 20.0639 16.0774 20.0889 15.758 20.1166Z" fill="#F7630C"/>
<path d="M13.2694 17.5975C13.5861 17.5836 13.9 17.5725 14.2139 17.5586C14.3111 17.8003 14.4028 18.0419 14.4972 18.2836C14.1944 18.7503 13.6833 18.878 13.2139 18.5669C13.2361 18.2447 13.2555 17.9197 13.2694 17.5975Z" fill="#F7894B"/>
<path d="M15.7583 20.1168C16.0777 20.0891 16.3972 20.0641 16.7194 20.0391C17.0611 20.5085 16.8972 21.0113 16.4555 21.3391C16.2166 21.2335 15.9722 21.1363 15.7222 21.0502C15.7361 20.7391 15.7499 20.428 15.7583 20.1168Z" fill="#F7894B"/>
<path d="M20.6554 24.3306C21.447 24.3195 22.2415 24.2889 23.0304 24.3778L23.3498 24.5056L23.0887 24.4778C22.8498 24.4917 22.372 24.5195 22.1304 24.5333C22.0748 24.6306 21.9637 24.8222 21.9081 24.9167C21.9554 27.475 21.8359 30.0361 21.9887 32.5917C22.397 32.3556 23.0109 32.2139 23.0831 31.6583C23.2609 30.7 23.1526 29.7195 23.1387 28.7528C25.1554 29.0389 27.3693 29.45 28.8248 31.0056C29.4915 31.6667 29.4304 32.6278 29.4193 33.4917C26.7915 36.2139 22.6554 36.6361 19.1081 35.9695C17.3109 35.6889 15.7137 34.7445 14.4137 33.4945C14.3998 32.625 14.3415 31.6583 15.0165 30.9972C16.4581 29.4722 18.6331 29.0333 20.6331 28.7722C20.5943 27.2917 20.7331 25.8111 20.6554 24.3306Z" fill="#F2F2F2"/>
</svg>
