<svg width="40" height="40" viewBox="0 0 40 40" fill="none" xmlns="http://www.w3.org/2000/svg">
<path d="M5.97222 5.40879C8.13889 2.91157 11.7889 1.90324 14.9444 2.85879C15.9722 3.17824 16.9417 3.78935 18.0556 3.73935C21.7639 3.73379 25.4694 3.73657 29.1778 3.72546C32.1361 3.43102 35.2111 5.28102 36 8.21157C36.5278 9.96157 36.075 11.8143 36.35 13.5921C36.6972 14.5755 37.2306 15.4838 37.5444 16.481C38.7167 17.431 39.7333 18.6505 40 20.1782V21.6838C39.7611 22.8921 39.0528 23.9143 38.25 24.8171C38.6778 26.1116 38.9972 27.5338 38.5 28.8616C38.1278 30.1032 37.1194 30.9866 36.0972 31.7088C35.2583 34.106 33.1222 36.1088 30.5028 36.2282C26.3556 36.2921 22.2028 36.2282 18.05 36.2449C16.9333 36.1949 15.9694 36.8338 14.9361 37.1449C11.5972 38.1643 7.73333 36.9421 5.61667 34.1616C4.39167 32.7671 4.09167 30.9116 3.56667 29.2032C2.90833 28.006 2.45 26.7088 2.48889 25.3199C1.29167 24.4255 0.305556 23.2143 0 21.7199V20.281C0.197222 19.1949 0.766667 18.2421 1.36389 17.3338C1.28611 16.1977 1.16111 14.9949 1.65833 13.9282C2.05833 12.931 2.9 12.2227 3.69167 11.5366C3.74722 9.31435 4.43056 7.05879 5.97222 5.40879ZM6.55 9.27546C6.10833 10.581 6.275 11.9782 6.24722 13.331C5.30556 13.5893 4.22778 13.9782 3.91389 15.0143C3.40278 16.2421 4.18889 17.4449 4.99444 18.3199C4.525 18.4893 4.03611 18.6255 3.6 18.8727C2.26944 19.656 2.12222 21.8144 3.33056 22.7727C4.14444 23.5116 5.31944 23.4227 6.34167 23.506C5.79722 24.1921 5.03056 24.8643 5.04444 25.8171C4.95556 26.7366 5.45 27.6588 6.22778 28.1393C5.92222 31.331 8.33056 34.5477 11.55 34.9227C13.225 35.1866 14.9111 34.7143 16.2944 33.7588C20.95 33.7282 25.6083 33.7782 30.2639 33.7393C31.85 33.7199 33.0639 32.4921 33.6722 31.1255C33.7139 30.6727 33.7472 30.2199 33.7778 29.7671C35.0722 29.6671 36.3333 28.6032 36.2639 27.2282C36.2194 25.5838 34.6778 24.6255 33.6833 23.5143C34.6972 23.4199 35.8639 23.506 36.6722 22.7727C37.7639 21.8949 37.7556 20.0227 36.7194 19.106C36.2194 18.6255 35.5028 18.5143 34.8667 18.3171C34.9056 17.6866 35.0028 17.0505 34.8972 16.4227C34.7528 15.7838 34.1861 15.3755 33.775 14.9116C33.7417 13.1893 33.8056 11.4671 33.7472 9.74768C33.6806 7.92824 32.0861 6.32824 30.2667 6.25602C25.6278 6.16713 20.9806 6.3199 16.3444 6.18379C15.2 5.67546 14.0778 4.95602 12.7667 5.02824C10.0361 4.80046 7.38056 6.69768 6.55 9.27546Z" fill="white"/>
<path d="M6.55017 9.27455C7.38073 6.69677 10.0363 4.79955 12.7668 5.02733C14.0779 4.95511 15.2002 5.67455 16.3446 6.18288C20.9807 6.319 25.6279 6.16622 30.2668 6.25511C32.0863 6.32733 33.6807 7.92733 33.7474 9.74677C33.8057 11.4662 33.7418 13.1884 33.7752 14.9107C33.7585 17.1634 33.7668 19.4162 33.7779 21.669C33.7807 22.6579 33.7279 23.7162 33.1529 24.5607C32.6585 25.3218 31.8363 25.7607 31.0779 26.2107C28.1029 26.3107 25.1224 26.219 22.1446 26.2579C20.9363 26.2523 19.7307 26.2468 18.5224 26.2495C17.7974 26.2495 17.0724 26.2579 16.3502 26.269C16.2974 25.0079 16.2557 23.7468 16.2085 22.4857C20.8057 22.3801 25.4113 22.5162 30.0113 22.4412C31.0585 22.469 32.1002 21.7912 32.3502 20.7468C32.7196 19.0384 32.4446 17.2801 32.4863 15.5523C32.4557 13.4607 32.7474 11.3384 32.3502 9.269C32.0946 8.08844 30.8585 7.48566 29.7363 7.49955C26.6724 7.37733 23.6029 7.594 20.5391 7.48844C18.6891 7.41066 16.6891 7.89955 14.9779 6.98011C14.1224 6.56622 13.2057 6.169 12.2335 6.26066C9.93906 6.35788 7.80573 8.22733 7.60017 10.5468C7.44184 12.5829 7.60017 14.6273 7.53628 16.669C7.54184 18.3273 7.35017 20.1718 8.39462 21.5912C9.30573 22.9773 10.9391 23.6579 12.5391 23.8134C12.5141 25.0579 12.4641 26.2996 12.3807 27.5412C10.6057 27.4579 8.98073 26.6162 7.68906 25.4357C6.93351 24.2107 6.23628 22.8745 6.25573 21.3968C6.22239 18.7079 6.26962 16.019 6.24739 13.3301C6.27517 11.9773 6.10851 10.5801 6.55017 9.27455Z" fill="#EBA300"/>
<path d="M26.6304 9.63841C26.9026 9.43008 27.1887 9.24397 27.4887 9.08008C27.8026 9.2273 28.0943 9.41341 28.3665 9.63563C28.0831 9.92175 27.7943 10.2023 27.4998 10.4745C27.2081 10.1967 26.9193 9.91619 26.6304 9.63841Z" fill="#EBA300"/>
<path d="M29.2725 9.76016C29.3808 9.57682 29.5947 9.21571 29.703 9.03516C30.2169 9.0546 30.5641 9.45738 30.9475 9.74071C30.6169 9.96293 30.2808 10.1713 29.9336 10.3629C29.6725 10.2046 29.453 10.0046 29.2725 9.76016Z" fill="#EBA300"/>
<path d="M29.5582 11.7691C29.8248 11.1719 30.5415 11.9552 30.8637 12.1663C30.547 12.4636 30.2304 12.7552 29.9082 13.0469C29.7026 12.6386 29.0804 12.2247 29.5582 11.7691Z" fill="#EBA300"/>
<path d="M6.22781 28.1387C6.60837 28.2776 6.99448 28.4081 7.38892 28.5109C7.45837 29.3331 7.45837 30.1748 7.68892 30.9748C8.47503 31.6137 9.40837 30.6414 10.2 30.4192C10.6611 31.147 11.3473 31.6776 12.1 32.0776C12.5639 32.8887 12.5417 33.847 12.5917 34.7498C12.3306 34.7942 11.8084 34.8803 11.55 34.922C8.33059 34.547 5.92226 31.3303 6.22781 28.1387Z" fill="#EBA300"/>
<path d="M16.1973 29.9662C16.6639 29.9606 17.1306 29.9662 17.5973 29.9662C17.7528 31.1495 18.7389 32.2301 19.9889 32.1773C21.2612 32.3023 22.3028 31.2301 22.4695 30.0273C23.3695 30.0329 24.2695 30.0384 25.1723 30.0412C25.3973 31.4384 26.9556 32.3773 28.2945 31.8995C29.2945 31.6273 29.825 30.6329 30.0889 29.7051C31.3139 30.1079 32.2917 31.3245 33.6723 31.1245C33.0639 32.4912 31.85 33.719 30.2639 33.7384C25.6084 33.7773 20.95 33.7273 16.2945 33.7579C16.2806 32.494 16.2612 31.2273 16.1973 29.9662Z" fill="#EBA300"/>
<path d="M7.60024 10.5475C7.80579 8.22802 9.93913 6.35858 12.2336 6.26136C13.2058 6.16969 14.1225 6.56691 14.978 6.9808C16.6891 7.90024 18.6891 7.41136 20.5391 7.48913C23.603 7.59469 26.6725 7.37802 29.7364 7.50024C30.8586 7.48636 32.0947 8.08913 32.3502 9.26969C32.7475 11.3391 32.4558 13.4614 32.4863 15.553C32.4447 17.2808 32.7197 19.0391 32.3502 20.7475C32.1002 21.7919 31.0586 22.4697 30.0114 22.4419C25.4114 22.5169 20.8058 22.3808 16.2086 22.4864L15.9586 22.5614C14.8586 23.078 13.7669 23.6752 12.5391 23.8141C10.9391 23.6586 9.30579 22.978 8.39468 21.5919C7.35024 20.1725 7.54191 18.328 7.53635 16.6697C7.60024 14.628 7.44191 12.5836 7.60024 10.5475ZM26.6308 9.63913C26.9197 9.91691 27.2086 10.1975 27.5002 10.4752C27.7947 10.203 28.0836 9.92247 28.3669 9.63636C28.0947 9.41413 27.803 9.22802 27.4891 9.0808C27.1891 9.24469 26.903 9.4308 26.6308 9.63913ZM29.2725 9.76136C29.453 10.0058 29.6725 10.2058 29.9336 10.3641C30.2808 10.1725 30.6169 9.96413 30.9475 9.74191C30.5641 9.45858 30.2169 9.0558 29.703 9.03636C29.5947 9.21691 29.3808 9.57802 29.2725 9.76136ZM29.5586 11.7697C29.0808 12.2252 29.703 12.6391 29.9086 13.0475C30.2308 12.7558 30.5475 12.4641 30.8641 12.1669C30.5419 11.9558 29.8252 11.1725 29.5586 11.7697Z" fill="#FFD679"/>
<path d="M3.91393 15.0134C4.22782 13.9773 5.3056 13.5884 6.24726 13.3301C6.26948 16.019 6.22226 18.7079 6.2556 21.3967C6.23615 22.8745 6.93337 24.2106 7.68893 25.4356C8.15282 26.3023 8.66115 27.1579 9.35282 27.8717C8.70837 28.1134 8.06671 28.3717 7.38893 28.5106C6.99448 28.4079 6.60837 28.2773 6.22782 28.1384C5.45004 27.6579 4.9556 26.7356 5.04448 25.8162C5.0306 24.8634 5.79726 24.1912 6.34171 23.5051C5.31948 23.4217 4.14448 23.5106 3.3306 22.7717C2.12226 21.8134 2.26948 19.6551 3.60004 18.8717C4.03615 18.6245 4.52504 18.4884 4.99448 18.319C4.18893 17.444 3.40282 16.2412 3.91393 15.0134Z" fill="#13A10E"/>
<path d="M33.7749 14.9111C34.186 15.375 34.7527 15.7834 34.8972 16.4222C35.0027 17.05 34.9055 17.6861 34.8666 18.3167C35.5027 18.5139 36.2194 18.625 36.7194 19.1056C37.7555 20.0222 37.7638 21.8945 36.6722 22.7722C35.8638 23.5056 34.6972 23.4195 33.6833 23.5139C34.6777 24.625 36.2194 25.5834 36.2638 27.2278C36.3333 28.6028 35.0722 29.6667 33.7777 29.7667C32.1694 29.5417 31.2166 28.1278 30.1416 27.0806C30.4444 26.7806 30.7527 26.4861 31.0777 26.2111C31.836 25.7611 32.6583 25.3222 33.1527 24.5611C33.7277 23.7167 33.7805 22.6584 33.7777 21.6695C33.7666 19.4167 33.7583 17.1639 33.7749 14.9111Z" fill="#13A10E"/>
<path d="M18.5223 26.2498C19.7307 26.247 20.9362 26.2525 22.1445 26.2581C23.0307 27.1498 24.0279 28.0386 25.3001 28.2998C26.964 28.7303 28.7807 28.247 30.0807 27.1387C30.0557 27.9942 30.1001 28.8498 30.089 29.7053C29.8251 30.6331 29.2945 31.6275 28.2945 31.8998C26.9557 32.3775 25.3973 31.4386 25.1723 30.0414C24.9473 29.3359 24.864 28.2498 23.8834 28.2442C22.864 28.1303 22.639 29.2831 22.4695 30.0275C22.3029 31.2303 21.2612 32.3025 19.989 32.1775C18.739 32.2303 17.7529 31.1498 17.5973 29.9664C17.4445 29.4025 17.2584 28.8442 17.1001 28.2831C17.6473 27.6581 18.0918 26.9553 18.5223 26.2498Z" fill="#13A10E"/>
<path d="M10.0195 28.4863C11.4445 29.6724 13.3973 29.9002 15.1584 29.4863C15.0806 29.7808 14.9279 30.3724 14.8501 30.6669C14.2056 31.5586 13.2056 32.0697 12.1001 32.078C11.3473 31.678 10.6612 31.1474 10.2001 30.4197C10.0973 29.7808 10.0723 29.1308 10.0195 28.4863Z" fill="#13A10E"/>
<path d="M12.5387 23.8141C13.7665 23.6752 14.8581 23.078 15.9581 22.5613L16.2081 22.4863C16.2554 23.7474 16.297 25.0086 16.3498 26.2697C15.1387 26.9808 13.7998 27.5002 12.3804 27.5419C12.4637 26.3002 12.5137 25.0586 12.5387 23.8141Z" fill="#D48C00"/>
<path d="M14.8498 30.6668C15.2831 30.4029 15.7304 30.1612 16.197 29.9668C16.2609 31.2279 16.2804 32.4946 16.2942 33.7585C14.9109 34.714 13.2248 35.1862 11.5498 34.9224C11.8081 34.8807 12.3304 34.7946 12.5915 34.7501C12.5415 33.8474 12.5637 32.889 12.0998 32.0779C13.2054 32.0696 14.2054 31.5585 14.8498 30.6668Z" fill="#D48C00"/>
<path d="M7.68896 25.4365C8.98063 26.6171 10.6056 27.4587 12.3806 27.5421C13.8001 27.5004 15.139 26.981 16.3501 26.2699C17.0723 26.2587 17.7973 26.2504 18.5223 26.2504C18.0917 26.956 17.6473 27.6587 17.1001 28.2837C16.4945 28.7449 15.8445 29.1532 15.1584 29.4865C13.3973 29.9004 11.4445 29.6726 10.0195 28.4865C9.78896 28.2893 9.56396 28.0865 9.35285 27.8726C8.66119 27.1587 8.15285 26.3032 7.68896 25.4365Z" fill="#E81224"/>
<path d="M22.1445 26.2582C25.1223 26.2193 28.1029 26.3109 31.0779 26.2109C30.7529 26.4859 30.4445 26.7804 30.1418 27.0804L30.0806 27.1387C28.7806 28.247 26.964 28.7304 25.3001 28.2998C24.0279 28.0387 23.0306 27.1498 22.1445 26.2582Z" fill="#E81224"/>
<path d="M30.0805 27.1384L30.1416 27.0801C31.2166 28.1273 32.1694 29.5412 33.7777 29.7662C33.7472 30.219 33.7138 30.6717 33.6722 31.1245C32.2916 31.3245 31.3138 30.1079 30.0888 29.7051C30.1 28.8495 30.0555 27.994 30.0805 27.1384Z" fill="#FFF100"/>
<path d="M9.35256 27.8721C9.56367 28.086 9.78867 28.2887 10.0192 28.486C10.072 29.1304 10.097 29.7804 10.1998 30.4193C9.40812 30.6415 8.47478 31.6137 7.68867 30.9748C7.45812 30.1748 7.45812 29.3332 7.38867 28.511C8.06645 28.3721 8.70812 28.1137 9.35256 27.8721Z" fill="#FFF100"/>
<path d="M22.4692 30.0275C22.6387 29.2831 22.8637 28.1303 23.8831 28.2442C24.8637 28.2497 24.947 29.3358 25.172 30.0414C24.2692 30.0386 23.3692 30.0331 22.4692 30.0275Z" fill="#FCE100"/>
<path d="M15.1584 29.486C15.8445 29.1526 16.4945 28.7443 17.1001 28.2832C17.2584 28.8443 17.4445 29.4026 17.5973 29.9665C17.1307 29.9665 16.664 29.961 16.1973 29.9665C15.7307 30.161 15.2834 30.4026 14.8501 30.6665C14.9279 30.3721 15.0807 29.7804 15.1584 29.486Z" fill="#FCE100"/>
</svg>
