<svg width="14" height="14" viewBox="0 0 14 14" fill="none" xmlns="http://www.w3.org/2000/svg">
<g>
<path d="M0 1.96777H14V12.0283C9.33333 12.0283 4.66667 12.0283 0 12.0283V1.96777ZM0.886667 2.84472C0.886667 3.19277 0.886667 3.54083 0.887639 3.88888C0.868195 5.87513 0.8925 7.86138 0.889583 9.84861L0.849722 9.84958C0.861389 9.99055 0.874028 10.1315 0.886667 10.2725C0.886667 10.4222 0.886667 10.5719 0.888611 10.7226H0.853611C0.860417 10.8646 0.867222 11.0075 0.875 11.1504C2.62014 11.1562 4.36431 11.1533 6.10945 11.1514C6.7025 11.1543 7.29556 11.1543 7.88861 11.1514C9.63083 11.1553 11.3731 11.1524 13.1143 11.1533C13.1133 11.0094 13.1124 10.8665 13.1124 10.7236C13.1133 10.5749 13.1143 10.4261 13.1143 10.2783C13.1279 10.1364 13.1406 9.99541 13.1532 9.85347L13.1065 9.8525C13.196 8.74222 13.0608 7.62902 13.1347 6.51777C13.0949 5.67388 13.1697 4.83 13.1231 3.98611C13.1017 3.60791 13.1124 3.22875 13.1415 2.85055C11.3896 2.83791 9.63764 2.84861 7.8857 2.84472C7.29458 2.84472 6.70347 2.84472 6.11236 2.84472C4.37014 2.84472 2.62792 2.84569 0.886667 2.84472Z" fill="#383838"/>
<path d="M0.88652 2.84473C2.62777 2.8457 4.36999 2.84473 6.11222 2.84473C6.11124 2.98862 6.11124 3.13153 6.11124 3.27445C4.51194 3.27445 2.91166 3.27445 1.31235 3.27445C1.31138 5.31612 1.31333 7.35778 1.31138 9.39945C2.91166 9.40139 4.51194 9.39945 6.11124 9.40042V9.84375C4.37097 9.84959 2.62971 9.84084 0.889437 9.84862C0.892353 7.86139 0.868048 5.87514 0.887492 3.88889C0.88652 3.54084 0.88652 3.19278 0.88652 2.84473Z" fill="#FAFFB4"/>
<path d="M7.88564 2.84431C9.63759 2.8482 11.3895 2.8375 13.1415 2.85014C13.1123 3.22834 13.1016 3.6075 13.123 3.9857C13.1697 4.82959 13.0948 5.67348 13.1347 6.51737C13.0608 7.62862 13.1959 8.74181 13.1065 9.85209C11.3604 9.8375 9.61523 9.84626 7.86912 9.8482C7.8662 9.6975 7.86425 9.54681 7.86328 9.39709C9.47134 9.40389 11.0794 9.39903 12.6884 9.39903C12.6874 7.35737 12.6894 5.3157 12.6874 3.27403C11.0872 3.27403 9.48592 3.27403 7.88564 3.27403C7.88564 3.13112 7.88564 2.9882 7.88564 2.84431Z" fill="#FAFFB4"/>
<path d="M6.11255 2.84473H7.88588V3.27445C7.88685 3.4232 7.88685 3.57098 7.88783 3.71973C7.88977 4.06681 7.89074 4.41389 7.88491 4.76098C7.86741 6.30584 7.89269 7.85167 7.86352 9.39751C7.86449 9.54723 7.86644 9.69792 7.86935 9.84862C7.2831 9.83792 6.69685 9.835 6.11158 9.84375C6.11158 9.69598 6.11158 9.5482 6.11158 9.40042C6.10963 7.85556 6.11644 6.30973 6.10769 4.76389C6.10671 4.41584 6.10866 4.06778 6.10963 3.71973C6.1106 3.57098 6.1106 3.4232 6.11158 3.27445C6.11158 3.13153 6.11158 2.98862 6.11255 2.84473Z" fill="#F2F2F2"/>
<path d="M1.3125 3.27441H6.11139C6.11041 3.42316 6.11041 3.57094 6.10944 3.71969C4.96416 3.72066 3.81791 3.71678 2.67263 3.72261C2.58611 3.9258 2.52194 4.1465 2.37902 4.31955C2.20305 4.48969 1.95708 4.55386 1.7393 4.65205C1.73541 5.78275 1.73347 6.91247 1.74027 8.04316C1.94833 8.12969 2.17583 8.19191 2.3518 8.33969C2.51708 8.51372 2.58416 8.75289 2.68236 8.96678C3.23847 8.97164 3.79458 8.96872 4.35069 8.97066C4.36625 8.82289 4.38277 8.67511 4.39833 8.52636C4.81639 8.52733 5.23347 8.52636 5.65055 8.53219C5.08861 8.02761 4.71722 7.28191 4.83194 6.51289C4.90972 5.74775 5.44541 5.11678 6.1075 4.76386C6.11625 6.30969 6.10944 7.85553 6.11139 9.40039C4.51208 9.39941 2.9118 9.40136 1.31152 9.39941C1.31347 7.35775 1.31152 5.31608 1.3125 3.27441Z" fill="#757575"/>
<path d="M7.88613 3.27441H12.6879C12.6899 5.31608 12.6879 7.35775 12.6889 9.39942C11.0799 9.39942 9.47183 9.40428 7.86377 9.39747C7.89294 7.85164 7.86766 6.3058 7.88516 4.76094C8.61433 5.13428 9.17627 5.8683 9.18502 6.71025C9.2278 7.41705 8.85933 8.06747 8.35085 8.53219C8.76794 8.52636 9.18502 8.52733 9.6021 8.52636C9.61766 8.67511 9.63419 8.82289 9.65071 8.97066C10.2097 8.96872 10.7697 8.97164 11.3288 8.9658C11.4211 8.75289 11.4775 8.5108 11.6438 8.33969C11.8159 8.19872 12.0327 8.13358 12.2339 8.049C12.2407 6.91441 12.2349 5.77983 12.2368 4.64525C12.0268 4.55094 11.7945 4.48483 11.6214 4.32539C11.4775 4.15233 11.4172 3.92872 11.3336 3.72358C10.1854 3.7158 9.03627 3.72164 7.88808 3.71969C7.8871 3.57094 7.8871 3.42316 7.88613 3.27441Z" fill="#757575"/>
<path d="M0.888516 10.7227C2.62977 10.7207 4.37004 10.7227 6.11032 10.7217C6.11032 10.8646 6.11032 11.0075 6.10935 11.1514C4.36421 11.1533 2.62004 11.1563 0.874905 11.1504C0.867127 11.0075 0.860321 10.8646 0.853516 10.7227H0.888516Z" fill="#757575"/>
<path d="M7.88867 10.7217C9.62992 10.7236 11.3712 10.7197 13.1124 10.7236C13.1124 10.8665 13.1134 11.0095 13.1144 11.1533C11.3731 11.1524 9.63089 11.1553 7.88867 11.1514C7.88867 11.0075 7.88867 10.8646 7.88867 10.7217Z" fill="#757575"/>
<path d="M2.67271 3.72302C3.81798 3.71719 4.96423 3.72108 6.10951 3.72011C6.10854 4.06816 6.1066 4.41622 6.10757 4.76427C5.44548 5.11719 4.90979 5.74816 4.83201 6.5133C4.71729 7.28233 5.08868 8.02803 5.65062 8.53261C5.23354 8.52678 4.81646 8.52775 4.3984 8.52677C4.38285 8.67552 4.36632 8.8233 4.35076 8.97108C3.79465 8.96914 3.23854 8.97205 2.68243 8.96719C2.58423 8.7533 2.51715 8.51414 2.35187 8.34011C2.1759 8.19233 1.9484 8.13011 1.74034 8.04358C1.73354 6.91289 1.73548 5.78316 1.73937 4.65247C1.95715 4.55427 2.20312 4.49011 2.37909 4.31997C2.52201 4.14691 2.58618 3.92622 2.67271 3.72302ZM3.06451 5.02872C3.06257 5.1765 3.06159 5.32525 3.05965 5.474C2.8059 5.63927 2.56187 5.894 2.64159 6.22747C2.67271 6.63094 3.10437 6.79427 3.45243 6.81566C3.46409 6.92455 3.47673 7.03344 3.47187 7.1433C3.19771 7.21914 2.90507 7.10733 2.62507 7.18122C2.74465 7.36011 2.89146 7.51858 3.05868 7.65566C3.06159 7.80247 3.06257 7.9483 3.06548 8.09608C3.20257 8.09705 3.33965 8.099 3.47673 8.10191C3.49326 7.9483 3.50979 7.79469 3.52534 7.64205C3.79465 7.45733 4.04062 7.15011 3.91035 6.80303C3.80048 6.42386 3.37562 6.37136 3.06646 6.23622C3.03534 6.07969 3.12868 5.97469 3.24534 5.89011C3.45632 6.0165 3.69646 5.97858 3.92493 5.93775C3.71396 5.65775 3.40965 5.4215 3.46701 5.02677C3.33284 5.02775 3.19868 5.02775 3.06451 5.02872Z" fill="#F8FFB3"/>
<path d="M7.88768 3.72002C9.03588 3.72197 10.185 3.71613 11.3332 3.72391C11.4168 3.92905 11.4771 4.15266 11.621 4.32572C11.7941 4.48516 12.0264 4.55127 12.2364 4.64558C12.2345 5.78016 12.2403 6.91474 12.2335 8.04933C12.0323 8.13391 11.8155 8.19905 11.6434 8.34002C11.4771 8.51113 11.4207 8.75322 11.3284 8.96613C10.7693 8.97197 10.2093 8.96905 9.65032 8.97099C9.63379 8.82322 9.61727 8.67544 9.60171 8.52669C9.18463 8.52766 8.76754 8.52669 8.35046 8.53252C8.85893 8.0678 9.2274 7.41738 9.18463 6.71058C9.17588 5.86863 8.61393 5.13461 7.88477 4.76127C7.8906 4.41419 7.88963 4.0671 7.88768 3.72002ZM10.4349 5.97169C9.97893 6.16808 9.93713 6.87974 10.3746 7.12086C10.7548 7.39016 11.3546 7.08391 11.3643 6.62211C11.446 6.14086 10.8578 5.72669 10.4349 5.97169Z" fill="#F8FFB3"/>
<path d="M0.886719 10.2725C2.62797 10.2763 4.36922 10.2725 6.11144 10.2744C6.11144 10.4232 6.11144 10.5729 6.11047 10.7216C4.37019 10.7226 2.62991 10.7207 0.888663 10.7226C0.886719 10.5719 0.886719 10.4222 0.886719 10.2725Z" fill="#F8FFB3"/>
<path d="M7.88379 10.2745C9.62698 10.2754 11.3712 10.2696 13.1143 10.2783C13.1143 10.4261 13.1134 10.5749 13.1124 10.7236C11.3712 10.7197 9.6299 10.7236 7.88865 10.7217C7.88768 10.572 7.88671 10.4232 7.88379 10.2745Z" fill="#F8FFB3"/>
<path d="M3.06444 5.02831C3.19861 5.02734 3.33278 5.02734 3.46694 5.02637C3.40958 5.42109 3.71389 5.65734 3.92486 5.93734C3.69639 5.97817 3.45625 6.01609 3.24528 5.8897C3.12861 5.97428 3.03528 6.07928 3.06639 6.23581C3.37556 6.37095 3.80042 6.42345 3.91028 6.80262C4.04056 7.1497 3.79458 7.45692 3.52528 7.64165C3.50972 7.79428 3.49319 7.9479 3.47667 8.10151C3.33958 8.09859 3.2025 8.09665 3.06542 8.09567C3.0625 7.9479 3.06153 7.80206 3.05861 7.65526C2.89139 7.51817 2.74458 7.3597 2.625 7.18081C2.905 7.10692 3.19764 7.21873 3.47181 7.1429C3.47667 7.03303 3.46403 6.92415 3.45236 6.81526C3.10431 6.79387 2.67264 6.63053 2.64153 6.22706C2.56181 5.89359 2.80583 5.63887 3.05958 5.47359C3.06153 5.32484 3.0625 5.17609 3.06444 5.02831Z" fill="#13A10E"/>
<path d="M10.4346 5.97111C10.8576 5.72611 11.4458 6.14028 11.3641 6.62153C11.3544 7.08333 10.7545 7.38958 10.3744 7.12028C9.93686 6.87916 9.97867 6.1675 10.4346 5.97111Z" fill="#13A10E"/>
<path d="M0.88947 9.84861C2.62975 9.84083 4.371 9.84958 6.11128 9.84375V10.2744C4.36905 10.2725 2.6278 10.2764 0.886554 10.2725C0.873915 10.1315 0.861276 9.99056 0.849609 9.84958L0.88947 9.84861Z" fill="#737374"/>
<path d="M7.86914 9.8491C9.61525 9.84716 11.3604 9.83841 13.1065 9.85299L13.1532 9.85397C13.1405 9.99591 13.1279 10.1369 13.1143 10.2788C11.3711 10.2701 9.62692 10.2759 7.88372 10.2749C7.87983 10.133 7.87497 9.99105 7.86914 9.8491Z" fill="#737374"/>
<path d="M6.11132 9.84402C6.6966 9.83527 7.28285 9.83818 7.8691 9.84888C7.87493 9.99082 7.87979 10.1328 7.88368 10.2747C7.8866 10.4235 7.88757 10.5722 7.88854 10.7219V11.1517C7.29549 11.1546 6.70243 11.1546 6.10938 11.1517C6.11035 11.0078 6.11035 10.8648 6.11035 10.7219C6.11132 10.5732 6.11132 10.4235 6.11132 10.2747C6.11132 10.1308 6.11132 9.9879 6.11132 9.84402Z" fill="#E5E5E5"/>
</g>
</svg>
