<svg width="40" height="40" viewBox="0 0 40 40" fill="none" xmlns="http://www.w3.org/2000/svg">
<g clip-path="url(#clip0_671_5566)">
<path d="M0 0H28.5611C32.375 3.81111 36.1889 7.625 40 11.4389V40H11.45C7.63056 36.1861 3.81667 32.3667 0 28.5528V0ZM2.47222 2.31389C2.50833 4.41944 2.55833 6.525 2.48056 8.63056C2.47778 14.7417 2.575 20.8556 2.47222 26.9667C2.44444 27.2833 2.54722 27.55 2.77778 27.7667C5.99167 30.9972 9.23889 34.2 12.4389 37.4472C20.7778 37.4778 29.1194 37.4528 37.4583 37.4611C37.55 29.1139 37.4694 20.7611 37.475 12.4083L37.4139 12.4167C34.2 9.19167 30.9778 5.97778 27.7611 2.75833C27.3417 2.28333 26.6528 2.50556 26.1028 2.45556C23.3139 2.53611 20.5 2.31667 17.725 2.56944L17.6333 2.45556C15.9972 2.54444 14.3278 2.29722 12.7167 2.59167L12.6 2.45833C9.3 2.53611 5.975 2.31389 2.68611 2.57222L2.47222 2.31389Z" fill="white"/>
<path d="M2.47172 2.31445L2.68561 2.57279C3.5995 3.69223 4.68283 4.65056 5.68839 5.6839C7.9745 7.95334 10.2245 10.2561 12.5328 12.5006C12.3773 20.8172 12.6551 29.1367 12.4384 37.4478C9.23839 34.2006 5.99117 30.9978 2.77728 27.7672C2.54672 27.5506 2.44394 27.2839 2.47172 26.9672C2.5745 20.8561 2.47728 14.7422 2.48005 8.63112C2.55783 6.52556 2.50783 4.42001 2.47172 2.31445ZM4.98561 20.0478C4.93561 22.3589 4.96061 24.6728 4.96617 26.9839C4.8995 27.5228 5.36617 27.8589 5.68839 28.2061C7.55228 30.0172 9.34672 31.9006 11.2245 33.695C11.2773 31.3506 11.2467 29.0061 11.2495 26.6589C11.3134 26.1589 10.8551 25.8617 10.5634 25.5395C8.68005 23.7339 6.90228 21.82 4.98561 20.0478Z" fill="#D8B094"/>
<path d="M2.68652 2.57265C5.97541 2.31432 9.30041 2.53654 12.6004 2.45877L12.7171 2.5921C15.8171 6.00599 19.2893 9.0671 22.3893 12.481C19.1032 12.5588 15.8199 12.4588 12.5337 12.5004C10.2254 10.256 7.97541 7.95321 5.6893 5.68377C4.68375 4.65043 3.60041 3.6921 2.68652 2.57265Z" fill="#F7D7C4"/>
<path d="M17.7246 2.56946C20.4996 2.31668 23.3135 2.53612 26.1024 2.45557C26.6524 2.50557 27.3413 2.28335 27.7607 2.75835C30.9774 5.97779 34.1996 9.19168 37.4135 12.4167C34.1329 12.6111 30.8385 12.4306 27.5524 12.5278C24.7996 9.88335 22.1552 7.13057 19.4246 4.46112C18.8135 3.87224 18.2385 3.24446 17.7246 2.56946Z" fill="#F7D7C4"/>
<path d="M12.7173 2.5919C14.3284 2.29746 15.9978 2.54468 17.634 2.45579L17.7256 2.56968C18.2395 3.24468 18.8145 3.87246 19.4256 4.46135C22.1562 7.13079 24.8006 9.88357 27.5534 12.528C25.8812 12.378 24.2062 12.6363 22.5367 12.4919L22.3895 12.4808C19.2895 9.0669 15.8173 6.00579 12.7173 2.5919Z" fill="#CCCCCC"/>
<path d="M37.4145 12.4165L37.4756 12.4082C37.47 20.761 37.5506 29.1138 37.4589 37.461C29.12 37.4526 20.7783 37.4776 12.4395 37.4471C12.6561 29.136 12.3783 20.8165 12.5339 12.4999C15.82 12.4582 19.1033 12.5582 22.3895 12.4804L22.5367 12.4915C22.4783 13.3138 22.47 14.136 22.5117 14.9582C24.1561 14.9776 25.8006 14.9749 27.445 14.9638C27.495 14.1526 27.5311 13.3415 27.5533 12.5276C30.8395 12.4304 34.1339 12.611 37.4145 12.4165ZM31.2672 29.9638C31.2589 30.3915 31.2533 30.8193 31.2478 31.2471C32.4895 31.2471 33.7311 31.2526 34.9728 31.2415C34.9617 30.8138 34.9478 30.386 34.9367 29.9582C33.7145 29.961 32.4895 29.961 31.2672 29.9638ZM28.745 33.7526C28.7506 34.1804 28.7589 34.6082 28.7672 35.036C30.8228 34.9971 32.8783 34.9332 34.9339 35.0388C34.9478 34.611 34.9617 34.1832 34.9756 33.7582C32.8978 33.7443 30.82 33.7526 28.745 33.7526Z" fill="#BB9167"/>
<path d="M22.5359 12.492C24.2053 12.6365 25.8804 12.3781 27.5526 12.5281C27.5304 13.342 27.4942 14.1531 27.4442 14.9643C25.7998 14.9754 24.1553 14.9781 22.5109 14.9587C22.4692 14.1365 22.4776 13.3143 22.5359 12.492Z" fill="#757575"/>
<path d="M4.98617 20.0469C6.90284 21.8191 8.68062 23.733 10.564 25.5385C10.8556 25.8608 11.314 26.158 11.2501 26.658C11.2473 29.0052 11.2778 31.3497 11.2251 33.6941C9.34728 31.8997 7.55284 30.0163 5.68895 28.2052C5.36673 27.858 4.90006 27.5219 4.96673 26.983C4.96117 24.6719 4.93617 22.358 4.98617 20.0469ZM6.2584 27.5302C7.49173 28.7385 8.75006 29.9274 9.90006 31.2163C10.164 30.0858 9.88895 28.9302 10.0251 27.7858C10.0112 27.1635 10.2028 26.3802 9.67506 25.9108C8.54173 24.7719 7.38617 23.6552 6.26673 22.5052C6.22228 24.1774 6.2334 25.8552 6.2584 27.5302Z" fill="#E5E5E5"/>
<path d="M6.2587 27.5309C6.2337 25.8559 6.22259 24.1781 6.26703 22.5059C7.38648 23.6559 8.54204 24.7725 9.67537 25.9114C10.2031 26.3809 10.0115 27.1642 10.0254 27.7864C9.88926 28.9309 10.1643 30.0864 9.90037 31.217C8.75037 29.9281 7.49204 28.7392 6.2587 27.5309Z" fill="#E81224"/>
<path d="M31.267 29.9645C32.4892 29.9618 33.7142 29.9618 34.9364 29.959C34.9476 30.3868 34.9614 30.8145 34.9726 31.2423C33.7309 31.2534 32.4892 31.2479 31.2476 31.2479C31.2531 30.8201 31.2587 30.3923 31.267 29.9645Z" fill="#373738"/>
<path d="M28.7441 33.7535C30.8191 33.7535 32.8969 33.7451 34.9747 33.759C34.9608 34.184 34.9469 34.6118 34.933 35.0396C32.8775 34.934 30.8219 34.9979 28.7664 35.0368C28.758 34.609 28.7497 34.1812 28.7441 33.7535Z" fill="#373738"/>
</g>
<defs>
<clipPath id="clip0_671_5566">
<rect width="40" height="40" fill="white"/>
</clipPath>
</defs>
</svg>
