<svg width="40" height="40" viewBox="0 0 40 40" fill="none" xmlns="http://www.w3.org/2000/svg">
<path d="M16.2477 1.61126C19.706 0.927928 23.356 1.19737 26.6505 2.47237C32.0282 4.46404 36.3393 9.09737 37.9449 14.6029C38.7782 17.3113 38.9616 20.2224 38.4949 23.0168C37.7366 27.8501 34.9643 32.3168 30.9977 35.1751C27.6088 37.6529 23.3616 38.9224 19.1727 38.7251C14.0866 38.5224 9.11989 36.1363 5.81434 32.2529C1.27545 27.1279 -0.0356625 19.414 2.57267 13.0835C4.80323 7.26959 10.1504 2.83348 16.2477 1.61126ZM13.8643 4.96126C8.81989 7.01404 4.881 11.6946 4.00323 17.1057C3.35323 20.6502 3.94212 24.4085 5.62823 27.5946C8.21156 32.5918 13.5671 35.989 19.181 36.2196C22.4366 36.389 25.7393 35.5474 28.5116 33.8251C32.4477 31.439 35.2643 27.2807 35.9977 22.7363C36.5532 19.689 36.1505 16.4918 34.9477 13.6446C32.8782 8.6557 28.1421 4.88348 22.8116 4.00571C19.8227 3.45571 16.6671 3.78626 13.8643 4.96126Z" fill="white"/>
<path d="M13.864 4.96139C16.6668 3.78639 19.8224 3.45583 22.8113 4.00583C28.1418 4.88361 32.8779 8.65583 34.9474 13.6447C36.1501 16.4919 36.5529 19.6892 35.9974 22.7364C35.264 27.2808 32.4474 31.4392 28.5113 33.8253C25.739 35.5475 22.4363 36.3892 19.1807 36.2197C13.5668 35.9892 8.21126 32.5919 5.62793 27.5947C6.18071 27.4336 6.93626 27.5669 7.25293 26.9669C7.61682 26.2725 7.3446 25.4558 7.54182 24.7225C7.66126 23.8531 8.78904 23.4447 8.73904 22.5114C8.78071 21.8419 8.16404 21.2392 7.50015 21.2503C6.63349 21.2808 5.91682 20.2392 6.36126 19.4614C6.54182 19.0725 6.94182 18.8947 7.28348 18.6753C7.61682 19.3031 8.02515 20.1503 8.89737 19.9586C9.83626 19.9447 9.93071 18.9003 10.2057 18.2364C11.1807 17.7086 11.2585 19.0142 11.5363 19.6058C12.1863 20.1753 12.4696 20.9669 12.7113 21.7697C12.964 21.8697 13.2224 21.8808 13.4807 21.8003C13.8668 21.2947 13.764 20.5392 14.2807 20.1114C14.8585 19.6503 14.9363 18.9031 15.2002 18.2614C15.4918 18.0447 16.1002 18.0642 16.1613 18.5086C16.2946 19.0669 16.439 19.6531 16.9057 20.0308C17.4113 20.4753 17.4251 21.1892 17.6974 21.7642C18.0613 21.9614 18.6113 21.8781 18.7307 21.4225C18.814 20.3947 18.6251 19.3447 18.8251 18.3308C19.1613 18.1781 19.514 18.0642 19.8529 17.9142C20.1085 17.2058 19.8252 16.3781 20.139 15.6558C20.6668 14.7586 22.0168 15.2031 22.4807 14.1919C22.6835 15.3753 21.1168 15.8142 21.2446 16.9669C21.3196 17.4892 21.9418 17.5586 22.3252 17.3419C22.4668 16.3947 23.0224 15.6669 23.6307 14.9642C24.1029 14.1808 23.314 13.4725 22.5418 13.8447C22.5307 12.8253 21.5835 12.5003 20.7529 12.3114C20.7196 12.1586 20.6502 11.8503 20.614 11.6975C20.9668 10.9947 21.8752 11.2697 22.5002 11.2475C23.1751 11.2169 23.7029 11.8031 23.7529 12.4503C23.739 13.0031 24.4752 13.3919 24.8557 12.9197C25.1113 12.1086 25.1168 11.1336 25.8863 10.5919C26.6002 9.88361 27.6501 10.1281 28.5279 9.86416C28.9557 9.55861 28.7224 8.80583 28.2307 8.76139C27.4307 8.70305 26.6307 8.78916 25.8335 8.70861C25.0974 8.45583 24.7529 7.51972 23.9002 7.53083C22.0613 7.35028 20.2029 7.55305 18.3613 7.42527C17.739 7.32805 17.4168 6.71416 16.9696 6.33916C16.1446 5.50583 15.0196 5.05305 13.864 4.96139ZM20.1696 21.2447C20.8113 21.3808 21.3696 20.8003 21.2502 20.1614C20.5335 19.6669 19.6529 20.5281 20.1696 21.2447ZM16.739 24.3753C17.689 25.5669 19.9279 24.8864 19.9529 23.3281C20.139 22.7114 19.4918 22.3558 18.9779 22.5975C18.6752 22.9669 18.7418 23.8836 18.0502 23.7503C17.3085 23.7697 17.6835 22.5031 16.9307 22.5281C15.8946 22.5197 16.1918 23.9114 16.739 24.3753ZM21.2585 23.3475C21.5279 23.9503 22.2807 23.6031 22.6751 24.0142C23.2835 24.5003 23.9752 25.3058 24.8363 24.8419C25.0724 24.4836 25.0057 23.7614 24.4585 23.7781C23.7363 23.7919 23.2529 23.2281 22.7418 22.8086C22.2668 22.3225 21.0196 22.4419 21.2585 23.3475ZM22.0807 25.1364C21.9057 25.4531 21.8029 25.8031 21.6807 26.1419C21.2474 26.3281 20.7335 26.1864 20.3168 26.4281C19.2418 26.8503 18.5696 28.0475 18.7668 29.1864C19.4279 30.6142 21.3696 29.4336 22.3113 30.4669C22.7418 30.7531 23.1224 31.378 23.714 31.2086C23.7418 30.2419 24.939 29.8558 24.9585 28.9031C24.9307 28.2169 25.0863 27.4892 24.8307 26.8364C24.5029 26.2947 23.864 26.2531 23.3113 26.1419C23.1863 25.8031 23.0918 25.4531 22.9224 25.1336C22.6418 24.9919 22.3613 24.9919 22.0807 25.1364ZM8.16682 26.4725C8.05571 26.8836 7.28071 26.9308 7.58626 27.4447C8.30848 27.7947 9.32515 26.4169 8.34182 26.2253L8.16682 26.4725ZM27.3196 30.0753C26.9113 30.6697 26.1279 31.1503 26.2529 31.9669C26.2918 32.4836 26.9863 32.5919 27.3363 32.3253C27.5196 31.7142 27.6057 31.0558 28.1196 30.6114C28.6196 30.1447 29.1251 29.2169 28.3418 28.7558C27.4918 28.553 27.5057 29.5364 27.3196 30.0753Z" fill="#0078D7"/>
<path d="M4.00253 17.1054C4.88031 11.6943 8.8192 7.01372 13.8636 4.96094C15.0192 5.0526 16.1442 5.50538 16.9692 6.33872C17.4164 6.71372 17.7386 7.3276 18.3609 7.42483C20.2025 7.5526 22.0609 7.34983 23.8998 7.53038C24.7525 7.51927 25.097 8.45538 25.8331 8.70816C26.6303 8.78872 27.4303 8.7026 28.2303 8.76094C28.722 8.80538 28.9553 9.55816 28.5275 9.86371C27.6498 10.1276 26.5998 9.88316 25.8859 10.5915C25.1164 11.1332 25.1109 12.1082 24.8553 12.9193C24.4748 13.3915 23.7386 13.0026 23.7525 12.4498C23.7025 11.8026 23.1748 11.2165 22.4998 11.247C21.8748 11.2693 20.9664 10.9943 20.6136 11.697C20.6498 11.8498 20.7192 12.1582 20.7525 12.3109C21.5831 12.4998 22.5303 12.8248 22.5414 13.8443C23.3136 13.472 24.1025 14.1804 23.6303 14.9637C23.022 15.6665 22.4664 16.3943 22.3248 17.3415C21.9414 17.5582 21.3192 17.4887 21.2442 16.9665C21.1164 15.8137 22.6831 15.3748 22.4803 14.1915C22.0164 15.2026 20.6664 14.7582 20.1386 15.6554C19.8248 16.3776 20.1081 17.2054 19.8525 17.9137C19.5136 18.0637 19.1609 18.1776 18.8248 18.3304C18.6248 19.3443 18.8136 20.3943 18.7303 21.4221C18.6109 21.8776 18.0609 21.9609 17.697 21.7637C17.4248 21.1887 17.4109 20.4748 16.9053 20.0304C16.4386 19.6526 16.2942 19.0665 16.1609 18.5082C16.0998 18.0637 15.4914 18.0443 15.1998 18.2609C14.9359 18.9026 14.8581 19.6498 14.2803 20.1109C13.7636 20.5387 13.8664 21.2943 13.4803 21.7998C13.222 21.8804 12.9636 21.8693 12.7109 21.7693C12.4692 20.9665 12.1859 20.1748 11.5359 19.6054C11.2581 19.0137 11.1803 17.7082 10.2053 18.2359C9.93031 18.8998 9.83586 19.9443 8.89698 19.9582C8.02475 20.1498 7.61642 19.3026 7.28309 18.6748C6.94142 18.8943 6.54142 19.072 6.36086 19.4609C5.91642 20.2387 6.63309 21.2804 7.49975 21.2498C8.16364 21.2387 8.78031 21.8415 8.73864 22.5109C8.78864 23.4443 7.66086 23.8526 7.54142 24.722C7.3442 25.4554 7.61642 26.2721 7.25253 26.9665C6.93586 27.5665 6.18031 27.4332 5.62753 27.5943C3.94142 24.4082 3.35253 20.6498 4.00253 17.1054Z" fill="#16C60C"/>
<path d="M16.7388 24.3747C16.1916 23.9108 15.8944 22.5191 16.9305 22.5275C17.6833 22.5025 17.3083 23.7691 18.0499 23.7497C18.7416 23.883 18.6749 22.9663 18.9777 22.5969C19.4916 22.3552 20.1388 22.7108 19.9527 23.3275C19.9277 24.8858 17.6888 25.5663 16.7388 24.3747Z" fill="#16C60C"/>
<path d="M21.2576 23.3472C21.0187 22.4416 22.266 22.3222 22.741 22.8083C23.2521 23.2277 23.7354 23.7916 24.4576 23.7777C25.0049 23.7611 25.0715 24.4833 24.8354 24.8416C23.9743 25.3055 23.2826 24.5 22.6743 24.0139C22.2799 23.6027 21.5271 23.95 21.2576 23.3472Z" fill="#16C60C"/>
<path d="M22.0806 25.136C22.3611 24.9916 22.6417 24.9916 22.9222 25.1332C23.0917 25.4527 23.1861 25.8027 23.3111 26.1416C23.8639 26.2527 24.5028 26.2944 24.8306 26.836C25.0861 27.4888 24.9306 28.2166 24.9584 28.9027C24.9389 29.8555 23.7417 30.2416 23.7139 31.2082C23.1222 31.3777 22.7417 30.7527 22.3111 30.4666C21.3695 29.4332 19.4278 30.6138 18.7667 29.186C18.5695 28.0471 19.2417 26.8499 20.3167 26.4277C20.7334 26.186 21.2472 26.3277 21.6806 26.1416C21.8028 25.8027 21.9056 25.4527 22.0806 25.136Z" fill="#16C60C"/>
<path d="M27.3193 30.0751C27.5054 29.5362 27.4915 28.5529 28.3415 28.7556C29.1248 29.2167 28.6193 30.1445 28.1193 30.6112C27.6054 31.0556 27.5193 31.714 27.3359 32.3251C26.9859 32.5917 26.2915 32.4834 26.2526 31.9667C26.1276 31.1501 26.9109 30.6695 27.3193 30.0751Z" fill="#16C60C"/>
<path d="M20.1698 21.2441C19.6531 20.5274 20.5336 19.6663 21.2503 20.1608C21.3698 20.7996 20.8114 21.3802 20.1698 21.2441Z" fill="#16C70A"/>
<path d="M8.16702 26.4718L8.34202 26.2246C9.32536 26.4163 8.30869 27.7941 7.58647 27.4441C7.28091 26.9302 8.05591 26.8829 8.16702 26.4718Z" fill="#16C70A"/>
</svg>
