<svg width="41" height="40" viewBox="0 0 41 40" fill="none" xmlns="http://www.w3.org/2000/svg">
<g clip-path="url(#clip0_671_5578)">
<path d="M18.9141 0H21.7057C23.4335 0.0888889 25.0779 0.630556 26.7585 0.969445C28.0279 0.669444 29.2363 0.0944444 30.5557 0H36.5835C36.5835 1.25 36.5835 2.5 36.5863 3.75H40.3335V9.69445C40.2529 11.0444 39.6668 12.2778 39.3585 13.5722C39.7224 15.3 40.2613 17.0056 40.3335 18.7861V21.1778C40.0307 25.6194 38.2557 29.9556 35.2807 33.2806C31.8863 37.1667 26.9335 39.5194 21.8196 40H19.0224C14.8946 39.65 10.8502 38.1139 7.65572 35.4556C3.4335 32.0528 0.833496 26.8639 0.333496 21.4889V18.6861C0.755718 13.2417 3.39183 7.975 7.6585 4.53333C10.8252 1.90278 14.8252 0.366667 18.9141 0V0ZM11.2085 5.06944C7.43905 7.35 4.6085 11.1139 3.46405 15.3639C2.1835 20.0833 2.92794 25.3472 5.61405 29.4556C8.29183 33.6806 12.8807 36.6167 17.8307 37.3139C20.8029 37.6806 23.8835 37.4278 26.6752 36.3C30.8141 34.7167 34.2807 31.4806 36.1613 27.4694C38.2391 23.0889 38.3668 17.8306 36.5224 13.35C37.9029 11.2556 37.9307 8.65 37.8196 6.23056C36.5724 6.23056 35.3252 6.23611 34.0752 6.23333C34.0752 4.97778 34.0779 3.71944 34.0668 2.46111C31.6557 2.41389 29.0668 2.42778 26.9835 3.81389C21.9224 1.70833 15.8641 2.17222 11.2085 5.06944Z" fill="white"/>
<path d="M11.2085 5.06988C15.864 2.17266 21.9223 1.70877 26.9834 3.81432C25.4501 4.78377 24.239 6.21432 23.5001 7.86988C20.839 7.29766 17.9751 7.37543 15.4529 8.47543C11.5418 10.1115 8.59456 13.8532 7.98345 18.056C7.70567 20.2615 7.85289 22.5615 8.71956 24.631C10.3446 28.8032 14.3696 31.9338 18.8334 32.4032C20.6084 32.5504 22.4335 32.4893 24.1362 31.9143C27.7251 30.7893 30.7223 27.9532 32.0335 24.4254C32.9751 22.0171 32.9973 19.3338 32.464 16.8282C34.1196 16.0977 35.5473 14.8782 36.5223 13.3504C38.3668 17.831 38.239 23.0893 36.1612 27.4699C34.2807 31.481 30.814 34.7171 26.6751 36.3004C23.8834 37.4282 20.8029 37.681 17.8307 37.3143C12.8807 36.6171 8.29178 33.681 5.61401 29.456C2.92789 25.3477 2.18345 20.0838 3.46401 15.3643C4.60845 11.1143 7.43901 7.35043 11.2085 5.06988Z" fill="#F03A17"/>
<path d="M17.4216 11.7504C19.1466 11.0921 21.0494 11.156 22.8244 11.5698C22.7522 12.9337 22.8133 14.3004 22.8689 15.6671C22.58 15.9587 22.2911 16.2532 22.005 16.5448C20.8966 16.2365 19.655 16.0421 18.6133 16.6671C16.7716 17.5782 15.9689 20.1004 17.0883 21.8615C18.1078 23.7393 20.8216 24.3837 22.5189 23.0337C24.0161 22.0032 24.3966 19.9754 23.7689 18.3365C24.0633 18.0421 24.3578 17.7476 24.6522 17.4532C26.0189 17.4615 27.3855 17.4643 28.7522 17.4671C29.3939 19.9337 29.0966 22.6754 27.6328 24.8032C25.5328 28.0865 21.105 29.6254 17.4355 28.2476C13.7216 27.0087 11.1772 23.0532 11.6272 19.156C11.9078 15.8365 14.2883 12.8448 17.4216 11.7504Z" fill="#F03A17"/>
<path d="M26.9833 3.81372C29.0666 2.42761 31.6555 2.41372 34.0666 2.46094C34.0777 3.71928 34.0749 4.97761 34.0749 6.23317C35.3249 6.23594 36.5721 6.23039 37.8194 6.23039C37.9305 8.64983 37.9027 11.2554 36.5221 13.3498C35.5471 14.8776 34.1194 16.0971 32.4638 16.8276C31.2888 17.3109 30.0166 17.4859 28.7527 17.4665C27.386 17.4637 26.0194 17.4609 24.6527 17.4526C27.0999 14.9637 29.5749 12.5026 32.0555 10.0471C32.4888 9.59983 32.9999 9.03872 32.7638 8.36094C32.5138 7.39705 31.1583 7.2665 30.5721 7.99706C27.986 10.5332 25.4638 13.1387 22.8694 15.6665C22.8138 14.2998 22.7527 12.9332 22.8249 11.5693C22.8583 10.3082 23.0249 9.0415 23.4999 7.86928C24.2388 6.21372 25.4499 4.78317 26.9833 3.81372Z" fill="#31D2F7"/>
<path d="M15.4527 8.47501C17.9749 7.37501 20.8388 7.29723 23.4999 7.86945C23.0249 9.04167 22.8583 10.3083 22.8249 11.5694C21.0499 11.1556 19.1472 11.0917 17.4222 11.75C14.2888 12.8444 11.9083 15.8361 11.6277 19.1556C11.1777 23.0528 13.7222 27.0083 17.4361 28.2472C21.1055 29.625 25.5333 28.0861 27.6333 24.8028C29.0972 22.675 29.3944 19.9333 28.7527 17.4667C30.0166 17.4861 31.2888 17.3111 32.4638 16.8278C32.9972 19.3333 32.9749 22.0167 32.0333 24.425C30.7222 27.9528 27.7249 30.7889 24.1361 31.9139C22.4333 32.4889 20.6083 32.55 18.8333 32.4028C14.3694 31.9333 10.3444 28.8028 8.71939 24.6306C7.85272 22.5611 7.7055 20.2611 7.98328 18.0556C8.59439 13.8528 11.5416 10.1111 15.4527 8.47501Z" fill="white"/>
<path d="M18.614 16.6665C19.6556 16.0415 20.8973 16.236 22.0056 16.5443C21.0945 17.5526 19.9834 18.386 19.2001 19.4998C18.6501 20.4526 19.914 21.7026 20.8529 21.1165C21.9473 20.3304 22.7723 19.236 23.7695 18.336C24.3973 19.9748 24.0168 22.0026 22.5195 23.0332C20.8223 24.3832 18.1084 23.7387 17.089 21.861C15.9695 20.0998 16.7723 17.5776 18.614 16.6665Z" fill="white"/>
<path d="M30.5724 7.99726C31.1585 7.26671 32.5141 7.39726 32.7641 8.36115C33.0002 9.03893 32.4891 9.60004 32.0557 10.0473C29.5752 12.5028 27.1002 14.9639 24.6529 17.4528C24.3585 17.7473 24.0641 18.0417 23.7696 18.3362C22.7724 19.2362 21.9474 20.3306 20.8529 21.1167C19.9141 21.7028 18.6502 20.4528 19.2002 19.5C19.9835 18.3861 21.0946 17.5528 22.0057 16.5445C22.2918 16.2528 22.5807 15.9584 22.8696 15.6667C25.4641 13.1389 27.9863 10.5334 30.5724 7.99726Z" fill="#0078D7"/>
</g>
<defs>
<clipPath id="clip0_671_5578">
<rect width="40" height="40" fill="white" transform="translate(0.333496)"/>
</clipPath>
</defs>
</svg>
