<svg width="40" height="40" viewBox="0 0 40 40" fill="none" xmlns="http://www.w3.org/2000/svg">
<path d="M11.6417 3.3587C12.2472 2.10592 13.5833 1.23092 14.9833 1.24759C18.325 1.23648 21.6694 1.23648 25.0111 1.24759C26.3944 1.22815 27.7083 2.08648 28.3389 3.30315C28.8361 4.19481 28.7417 5.25037 28.7639 6.2337C31.3056 6.24759 33.8472 6.20592 36.3889 6.24759C38.1889 6.26704 39.7528 7.7837 40 9.53926V21.7087C39.875 22.6281 39.3556 23.4087 38.7639 24.0976C38.7278 27.7337 38.7694 31.3726 38.7472 35.0087C38.775 36.4143 37.8944 37.7504 36.6417 38.3587C35.7139 38.8531 34.625 38.7337 33.6111 38.7476C24.0694 38.7309 14.525 38.7531 4.98333 38.7393C2.61944 38.8115 0.880556 36.4143 1.24167 34.167C1.25278 30.8115 1.26389 27.4531 1.23611 24.0976C0.655556 23.417 0.152778 22.6448 0 21.7448V9.48648C0.297222 7.7587 1.83056 6.26148 3.62222 6.24759C6.15833 6.20592 8.69722 6.24759 11.2333 6.2337C11.2611 5.26981 11.1722 4.23926 11.6417 3.3587V3.3587ZM13.7722 4.99204C13.7167 6.24204 13.7694 7.49204 13.7667 8.74204C10.4722 8.74759 7.17778 8.7337 3.88056 8.74481C3.27778 8.68648 2.58889 9.11148 2.57222 9.7587C2.42222 12.3393 2.44444 14.9226 2.53889 17.5031C2.6 18.8031 2.36667 20.1087 2.53611 21.4004C2.58611 22.0143 3.15556 22.4809 3.75 22.5087C3.74722 26.5809 3.74444 30.6559 3.75 34.7281C3.69167 35.3059 3.95278 35.8726 4.48056 36.142C5.19167 36.317 5.93333 36.2309 6.65833 36.2476C16.0111 36.2393 25.3611 36.2448 34.7111 36.2448C35.4389 36.3476 36.2694 35.8087 36.2361 35.0198C36.2694 30.8531 36.25 26.6865 36.2444 22.517C36.8389 22.4809 37.4167 22.0254 37.4667 21.4059C37.6556 20.2059 37.4056 18.9948 37.4917 17.7893C37.6111 16.0281 37.4028 14.267 37.4667 12.5059C37.4667 11.5781 37.6222 10.6393 37.4472 9.71981C37.3611 9.10315 36.7333 8.68926 36.1306 8.74759C32.8306 8.73093 29.5306 8.74759 26.2333 8.74204C26.2194 7.39481 26.3111 6.04481 26.2 4.70315C26.075 4.02815 25.35 3.67537 24.7111 3.74759C21.5667 3.74759 18.4222 3.74759 15.2778 3.74759C14.5389 3.63926 13.7306 4.20315 13.7722 4.99204V4.99204Z" fill="white"/>
<path d="M16.2502 6.23867C18.7502 6.23034 21.2502 6.23034 23.7502 6.23867C23.7585 7.07201 23.7558 7.90812 23.7641 8.74145C21.2558 8.74145 18.7447 8.74145 16.2363 8.74145C16.2447 7.90812 16.2419 7.07201 16.2502 6.23867V6.23867Z" fill="white"/>
<path d="M13.7721 4.99216C13.7305 4.20327 14.5388 3.63938 15.2777 3.74771H24.711C25.3499 3.67549 26.0749 4.02827 26.1999 4.70327C26.311 6.04494 26.2194 7.39494 26.2332 8.74216C25.4082 8.74494 24.586 8.74494 23.7638 8.74216C23.7555 7.90882 23.7582 7.07271 23.7499 6.23938C21.2499 6.23105 18.7499 6.23105 16.2499 6.23938C16.2416 7.07271 16.2444 7.90882 16.236 8.74216C15.4138 8.74216 14.5916 8.74494 13.7666 8.74216C13.7694 7.49216 13.7166 6.24216 13.7721 4.99216V4.99216Z" fill="#613D30"/>
<path d="M3.75071 22.5088C7.91459 22.5338 12.0813 22.4254 16.2452 22.4615C16.2452 23.2921 16.2396 24.1199 16.2424 24.9504C18.7396 25.0921 21.2424 24.9227 23.7424 25.0449C23.7618 24.1865 23.7563 23.3282 23.759 22.4727C27.9202 22.5449 32.084 22.4643 36.2452 22.5171C36.2507 26.6865 36.2702 30.8532 36.2368 35.0199C36.2702 35.8088 35.4396 36.3477 34.7118 36.2449C25.3618 36.2449 16.0118 36.2393 6.65904 36.2477C5.93404 36.231 5.19237 36.3171 4.48126 36.1421C3.95348 35.8727 3.69237 35.306 3.75071 34.7282C3.74515 30.656 3.74793 26.581 3.75071 22.5088V22.5088Z" fill="#613D30"/>
<path d="M2.57274 9.75849C2.5894 9.11126 3.27829 8.68626 3.88107 8.7446C7.17829 8.73349 10.4727 8.74737 13.7672 8.74182C14.5922 8.7446 15.4144 8.74182 16.2366 8.74182H23.7644C24.5866 8.7446 25.4088 8.7446 26.2338 8.74182C29.5311 8.74737 32.8311 8.73071 36.1311 8.74737C36.7338 8.68904 37.3616 9.10293 37.4477 9.7196C37.6227 10.639 37.4672 11.5779 37.4672 12.5057C37.4033 14.2668 37.6116 16.0279 37.4922 17.789C37.4061 18.9946 37.6561 20.2057 37.4672 21.4057C37.4172 22.0252 36.8394 22.4807 36.245 22.5168C32.0838 22.464 27.92 22.5446 23.7588 22.4724C21.2533 22.439 18.7505 22.589 16.245 22.4613C12.0811 22.4252 7.9144 22.5335 3.75051 22.5085C3.15607 22.4807 2.58663 22.014 2.53663 21.4002C2.36718 20.1085 2.60051 18.8029 2.5394 17.5029C2.44496 14.9224 2.42274 12.339 2.57274 9.75849V9.75849Z" fill="#8E562E"/>
<path d="M16.2448 22.4609C18.7503 22.5887 21.2531 22.4387 23.7587 22.472C23.7559 23.3276 23.7614 24.1859 23.742 25.0443C21.242 24.922 18.7392 25.0915 16.242 24.9498C16.2392 24.1193 16.2448 23.2915 16.2448 22.4609V22.4609Z" fill="#FFB900"/>
</svg>
