<svg viewBox="0 0 40 40">
<g>
<path d="M31.8139 1.79991C33.375 0.433241 35.8194 0.236018 37.5722 1.34991C38.8444 2.09157 39.6472 3.42768 40 4.83046V6.43324C39.6222 7.79435 38.8889 9.12491 37.6556 9.88324C36.7167 10.5332 35.5528 10.6166 34.4556 10.7166C33.1167 13.9332 32.3667 17.3582 31.2861 20.6666C30.975 21.8249 30.4694 22.9416 30.3472 24.1444C30.8028 26.1499 32.6806 27.7999 32.3083 29.9916C32.1278 31.3749 31.0417 32.3582 29.8944 33.0166C29.9611 34.2305 30.0972 35.5527 29.4417 36.6471C28.5583 38.3527 26.6528 39.5082 24.7167 39.3582C22.6222 39.2971 20.7111 37.7138 20.1778 35.6999C19.9861 34.8582 20.0611 33.986 20.0778 33.1305C18.7861 33.136 17.4917 33.1388 16.1972 33.1221C16.3167 34.6138 16.2056 36.236 15.2028 37.4332C14.2 38.7555 12.5028 39.5027 10.8528 39.3527C8.84445 39.2194 7.03333 37.7194 6.45833 35.8027C6.19167 34.9332 6.275 34.0166 6.29722 33.1221C4.61389 33.1416 2.93333 33.1305 1.25278 33.1332C1.28056 31.4971 1.025 29.7277 1.85556 28.2332C2.35 27.2805 3.24444 26.6444 4.09722 26.036C2.71944 21.486 1.33333 16.9388 0 12.3749V11.2332C0.419444 9.46935 2.01944 8.01657 3.89167 8.13046C11.6972 8.12769 19.5056 8.12491 27.3111 8.13324C27.9444 7.0388 28.6583 5.99435 29.4889 5.04157C30.3778 4.04157 30.7556 2.66102 31.8139 1.79991ZM32.4694 5.65269C30.8222 6.90546 29.725 8.71657 29.0194 10.6332C20.6417 10.6249 12.2611 10.6221 3.88333 10.636C3.26944 10.5721 2.60556 10.9971 2.54722 11.6388C2.52222 12.2166 2.69167 12.7777 2.84167 13.3249C3.86944 16.8527 4.99722 20.3471 6.00833 23.8777C6.22778 24.6082 6.52222 25.6444 7.48056 25.611C13.4361 25.6527 19.3944 25.611 25.35 25.6305C25.7611 26.4638 26.1778 27.2944 26.5917 28.1249C19.7639 28.1444 12.9333 28.0999 6.10556 28.1471C4.75556 28.1416 3.84167 29.3805 3.67222 30.6221C5.14722 30.6444 6.625 30.6305 8.10278 30.6388C8.46389 31.5166 8.98889 32.3166 9.36389 33.1832L9.13611 33.2721C8.63333 33.4471 8.81111 34.0305 8.76111 34.4388C8.73611 35.7999 10.0389 36.9916 11.3944 36.8527C12.7472 36.8388 13.8944 35.5249 13.75 34.1832C13.7278 33.3249 13.0611 32.7194 12.525 32.1305C12.5278 31.6277 12.5361 31.1305 12.5444 30.6305C15.6417 30.6444 18.7361 30.6249 21.8333 30.6388C21.9028 30.7582 22.0389 30.9971 22.1056 31.1138C22.325 31.6805 22.6139 32.2166 22.8694 32.7694C22.675 33.5444 22.4 34.3666 22.6333 35.1694C22.9528 36.1555 23.9556 36.9055 25.0056 36.8555C26.4028 36.9138 27.6556 35.5638 27.4611 34.1666C27.4694 33.3138 26.8167 32.6944 26.2528 32.1444C26.2444 31.6388 26.2417 31.1332 26.2361 30.6277C27.4278 30.4971 29.2 31.1332 29.8472 29.761C29.7111 27.8138 28.275 26.2305 27.5972 24.436C28.6389 20.536 29.9111 16.6916 31.0278 12.8082C31.5222 11.0027 32.2361 9.14157 33.6917 7.88602C34.8528 8.24991 36.3167 8.1888 37.0361 7.06102C38.125 5.61935 37.1139 3.25546 35.2833 3.15269C33.7972 2.91102 32.5333 4.22213 32.4694 5.65269Z" fill="white"/>
<path d="M5.41406 13.1418C6.52517 13.1307 7.63906 13.1335 8.75017 13.1363C8.7474 14.3835 8.75295 15.6335 8.7474 16.8835C8.01684 16.8779 7.28351 16.8779 6.55295 16.8779C6.1724 15.6335 5.81406 14.3807 5.41406 13.1418Z" fill="white"/>
<path d="M10.0332 13.1338C11.2749 13.1366 12.5165 13.1366 13.7582 13.1338V16.881C12.5165 16.8755 11.2749 16.8782 10.0332 16.881C10.0332 15.631 10.0332 14.3838 10.0332 13.1338Z" fill="white"/>
<path d="M14.9644 13.1443C16.2255 13.1276 17.4894 13.1332 18.7533 13.136C18.7505 14.3832 18.7477 15.6276 18.7533 16.8749C17.4894 16.8804 16.2255 16.8832 14.9616 16.8665C14.9616 15.6249 14.9589 14.386 14.9644 13.1443Z" fill="white"/>
<path d="M20.0336 13.1338C21.2753 13.1338 22.5169 13.1366 23.7586 13.1338V16.881C22.5114 16.8755 21.2669 16.881 20.0197 16.8727C19.9391 15.6282 19.9447 14.3782 20.0336 13.1338Z" fill="white"/>
<path d="M24.9644 13.1441C26.0783 13.1302 27.1922 13.1302 28.3061 13.1385C27.92 14.3718 27.6311 15.6385 27.1644 16.8413C26.4311 16.9135 25.695 16.8746 24.9616 16.8663C24.9616 15.6274 24.9589 14.3857 24.9644 13.1441Z" fill="white"/>
<path d="M7.2998 19.3609C7.78314 19.3581 8.26369 19.3553 8.74703 19.3525C8.73592 20.6664 8.80536 21.9803 8.68314 23.2886C7.91647 22.1109 7.7748 20.6609 7.2998 19.3609Z" fill="white"/>
<path d="M10.0415 19.3555C11.2804 19.3582 12.5165 19.3582 13.7554 19.3555C13.7581 20.6166 13.7609 21.8749 13.7554 23.136C12.5137 23.1332 11.2748 23.1332 10.0331 23.136C10.0359 21.8749 10.0137 20.6138 10.0415 19.3555Z" fill="white"/>
<path d="M14.9613 19.361C16.2224 19.3527 17.4863 19.3582 18.7474 19.3555C18.7502 20.6166 18.753 21.8749 18.7474 23.136C17.4863 23.1332 16.228 23.136 14.9668 23.1305C14.9613 21.8749 14.9557 20.6166 14.9613 19.361Z" fill="white"/>
<path d="M20.0226 19.3582C21.267 19.3555 22.5115 19.3582 23.7559 19.3555C23.7587 20.6166 23.7587 21.8749 23.7559 23.136C22.517 23.1332 21.2809 23.1332 20.042 23.136C20.0559 21.8749 19.9254 20.6166 20.0226 19.3582Z" fill="white"/>
<path d="M24.9613 19.3612C25.4557 19.3584 25.9501 19.3584 26.4446 19.3584C26.0751 20.5417 25.814 21.7667 25.3446 22.9167C25.2613 22.9862 25.0918 23.1195 25.0085 23.189C24.9085 21.914 24.9779 20.6362 24.9613 19.3612Z" fill="white"/>
<path d="M32.4697 5.65295C32.5336 4.22239 33.7975 2.91128 35.2836 3.15295C37.1142 3.25572 38.1253 5.61961 37.0364 7.06128C36.317 8.18906 34.8531 8.25017 33.6919 7.88628C34.4836 7.24461 35.4919 6.88628 36.1669 6.10572C36.5169 5.30295 35.8586 4.3835 35.0114 4.36128C34.0475 4.50295 33.2419 5.10295 32.4697 5.65295Z" fill="#F03A17"/>
<path d="M32.4696 5.65299C33.2418 5.10299 34.0474 4.50299 35.0113 4.36133C35.8585 4.38355 36.5168 5.30299 36.1668 6.10577C35.4918 6.88633 34.4835 7.24466 33.6918 7.88633C32.2363 9.14188 31.5224 11.003 31.0279 12.8086C29.9113 16.6919 28.6391 20.5363 27.5974 24.4363C28.2752 26.2308 29.7113 27.8141 29.8474 29.7613C29.2002 31.1336 27.4279 30.4974 26.2363 30.628C24.9113 30.6169 23.5835 30.5724 22.2585 30.6586C22.2196 30.7724 22.1446 31.0002 22.1057 31.1141C22.0391 30.9974 21.9029 30.7586 21.8335 30.6391C18.7363 30.6252 15.6418 30.6447 12.5446 30.6308C12.5363 31.1308 12.5279 31.628 12.5252 32.1308V32.5863C12.4224 31.9308 12.2891 31.2808 12.1696 30.628C10.8141 30.6197 9.4585 30.628 8.10295 30.6391C6.62517 30.6308 5.14739 30.6447 3.67239 30.6224C3.84184 29.3808 4.75573 28.1419 6.10573 28.1474C12.9335 28.1002 19.7641 28.1447 26.5918 28.1252C26.1779 27.2947 25.7613 26.4641 25.3502 25.6308C19.3946 25.6113 13.4363 25.653 7.48073 25.6113C6.52239 25.6447 6.22795 24.6086 6.0085 23.878C4.99739 20.3474 3.86961 16.853 2.84184 13.3252C2.69184 12.778 2.52239 12.2169 2.54739 11.6391C2.60573 10.9974 3.26961 10.5724 3.8835 10.6363C12.2613 10.6224 20.6418 10.6252 29.0196 10.6336C29.7252 8.71688 30.8224 6.90577 32.4696 5.65299ZM5.41406 13.1419C5.81406 14.3808 6.17239 15.6336 6.55295 16.878C7.2835 16.878 8.01684 16.878 8.74739 16.8836C8.75295 15.6336 8.74739 14.3836 8.75017 13.1363C7.63906 13.1336 6.52517 13.1308 5.41406 13.1419ZM10.0335 13.1336V16.8808C11.2752 16.878 12.5168 16.8752 13.7585 16.8808C13.7585 15.6308 13.7585 14.3808 13.7585 13.1336C12.5168 13.1363 11.2752 13.1363 10.0335 13.1336ZM14.9641 13.1447C14.9585 14.3863 14.9613 15.6252 14.9613 16.8669C16.2252 16.8836 17.4891 16.8808 18.7529 16.8752C18.7474 15.628 18.7502 14.3836 18.7529 13.1363C17.4891 13.1336 16.2252 13.128 14.9641 13.1447ZM20.0335 13.1336C19.9446 14.378 19.9391 15.628 20.0196 16.8724C21.2668 16.8808 22.5113 16.8752 23.7585 16.8808C23.7585 15.6308 23.7585 14.3808 23.7585 13.1336C22.5168 13.1363 21.2752 13.1336 20.0335 13.1336ZM24.9641 13.1447C24.9585 14.3863 24.9613 15.628 24.9613 16.8669C25.6946 16.8752 26.4307 16.9141 27.1641 16.8419C27.6307 15.6391 27.9196 14.3724 28.3057 13.1391C27.1918 13.1308 26.0779 13.1308 24.9641 13.1447ZM7.30017 19.3613C7.77517 20.6613 7.91684 22.1113 8.6835 23.2891C8.80573 21.9808 8.73628 20.6669 8.74739 19.353C8.26406 19.3558 7.7835 19.3586 7.30017 19.3613ZM10.0418 19.3558C10.0141 20.6141 10.0363 21.8752 10.0335 23.1363C11.2752 23.1336 12.5141 23.1336 13.7557 23.1363C13.7613 21.8752 13.7585 20.6169 13.7557 19.3558C12.5168 19.3586 11.2807 19.3586 10.0418 19.3558ZM14.9613 19.3613C14.9557 20.6169 14.9613 21.8752 14.9668 23.1308C16.2279 23.1363 17.4863 23.1336 18.7474 23.1363C18.7529 21.8752 18.7502 20.6169 18.7474 19.3558C17.4863 19.3586 16.2224 19.353 14.9613 19.3613ZM20.0224 19.3586C19.9252 20.6169 20.0557 21.8752 20.0418 23.1363C21.2807 23.1336 22.5168 23.1336 23.7557 23.1363C23.7585 21.8752 23.7585 20.6169 23.7557 19.3558C22.5113 19.3586 21.2668 19.3558 20.0224 19.3586ZM24.9613 19.3613C24.9779 20.6363 24.9085 21.9141 25.0085 23.1891C25.0918 23.1197 25.2613 22.9863 25.3446 22.9169C25.8141 21.7669 26.0752 20.5419 26.4446 19.3586C25.9502 19.3586 25.4557 19.3586 24.9613 19.3613Z" fill="#CCCCCC"/>
<path d="M8.10254 30.6385C9.45809 30.6274 10.8137 30.6191 12.1692 30.6274C12.2887 31.2802 12.422 31.9302 12.5248 32.5857C12.5359 33.2885 12.5498 34.0024 12.4192 34.6969C12.3053 35.4413 11.2859 35.9052 10.6664 35.4469C9.96087 34.8857 9.71087 33.9746 9.36365 33.183C8.98865 32.3163 8.46365 31.5163 8.10254 30.6385Z" fill="#E5E5E5"/>
<path d="M22.2582 30.6584C23.5832 30.5722 24.911 30.6167 26.236 30.6278C26.2416 31.1334 26.2444 31.6389 26.2527 32.1445C26.2555 32.9195 26.2888 33.6972 26.1971 34.4722C26.1805 35.1778 25.4249 35.4639 24.986 35.8861C23.8777 35.1639 23.3749 33.9278 22.8694 32.7695C22.6138 32.2167 22.3249 31.6806 22.1055 31.1139C22.1444 31 22.2194 30.7722 22.2582 30.6584Z" fill="#E5E5E5"/>
<path d="M12.525 32.1299C13.0611 32.7188 13.7278 33.3243 13.75 34.1827C13.8944 35.5243 12.7472 36.8382 11.3944 36.8521C10.0389 36.991 8.7361 35.7993 8.7611 34.4382C8.8111 34.0299 8.63332 33.4465 9.1361 33.2715L9.36387 33.1827C9.7111 33.9743 9.9611 34.8854 10.6667 35.4466C11.2861 35.9049 12.3055 35.441 12.4194 34.6966C12.55 34.0021 12.5361 33.2882 12.525 32.5854V32.1299Z" fill="#757575"/>
<path d="M26.2528 32.1436C26.8167 32.6936 27.4695 33.313 27.4611 34.1658C27.6556 35.563 26.4028 36.913 25.0056 36.8547C23.9556 36.9047 22.9528 36.1547 22.6334 35.1686C22.4 34.3658 22.675 33.5436 22.8695 32.7686C23.375 33.9269 23.8778 35.163 24.9861 35.8852C25.425 35.463 26.1806 35.1769 26.1973 34.4713C26.2889 33.6963 26.2556 32.9186 26.2528 32.1436Z" fill="#757575"/>
</g>

</svg>
