<svg width="40" height="40" viewBox="0 0 40 40" fill="none" xmlns="http://www.w3.org/2000/svg">
<path d="M13.3722 5.89181C15.2194 4.56681 17.6 5.05848 19.7167 5.0307C21.6306 5.10848 23.8028 4.6557 25.4333 5.93903C26.8056 6.85292 27.3806 8.47237 27.6194 10.0335C30.0472 9.98348 32.4833 9.88625 34.9028 10.1168C37.5278 10.5029 39.55 12.7918 40 15.3474V31.8196C39.7667 32.8529 39.2083 33.8418 38.2944 34.414C37.1667 35.1835 35.7306 34.9279 34.4444 34.9724C29.6306 35.0779 24.8167 34.9751 20.0028 34.9974C14.5306 34.9529 9.05556 35.1307 3.58611 34.9835C1.81111 34.989 0.330556 33.5418 0 31.8501V15.4057C0.391667 12.9946 2.175 10.8251 4.575 10.2196C6.73333 9.73903 8.95556 10.089 11.1417 10.0363C11.3556 8.44737 11.9722 6.80292 13.3722 5.89181ZM15.1944 7.71681C13.3389 8.53626 13.7667 10.8279 13.7583 12.464C11.7722 12.5529 9.78333 12.5113 7.79722 12.489C6.59722 12.5779 5.25556 12.3446 4.21111 13.0807C3.41667 13.6251 2.74167 14.4529 2.59444 15.4251C2.38889 16.9335 2.48056 18.4585 2.46944 19.9751C2.45 23.4113 2.47222 26.8474 2.45278 30.2835C2.48333 30.8501 2.43056 31.4696 2.71944 31.9835C3.16389 32.6224 4.04444 32.4974 4.72222 32.5307C8.69444 32.3557 12.6722 32.6168 16.6472 32.4807C23.15 32.5224 29.65 32.4724 36.15 32.4946C37.0806 32.5918 37.6306 31.6807 37.525 30.8446C37.4556 27.2474 37.5944 23.6474 37.4694 20.0474C37.4917 19.6113 37.5167 19.1751 37.5417 18.7418C37.5333 17.6974 37.5806 16.6474 37.4389 15.6113C37.225 14.0224 35.8083 12.6224 34.1833 12.5613C32.2667 12.4418 30.3472 12.4779 28.4278 12.4557C27.3 12.5085 26.1722 12.5501 25.0444 12.5113C24.8694 11.0918 25.3694 9.3557 24.2806 8.21681C23.4694 7.3307 22.1778 7.56681 21.1083 7.52237C19.1417 7.5557 17.125 7.25014 15.1944 7.71681Z" fill="white"/>
<path d="M16.258 9.96099C18.3219 9.94155 20.3858 10.0721 22.4497 9.96933C22.4886 10.8082 22.5247 11.6471 22.5552 12.4888C20.4552 12.5415 18.3552 12.5138 16.2552 12.511C16.2525 11.661 16.2525 10.811 16.258 9.96099Z" fill="white"/>
<path d="M15.1948 7.71626C17.1253 7.24959 19.142 7.55515 21.1086 7.52181C22.1781 7.56626 23.4698 7.33015 24.2809 8.21626C25.3698 9.35515 24.8698 11.0913 25.0448 12.5107C24.2142 12.4857 23.3836 12.4718 22.5559 12.4885C22.5253 11.6468 22.4892 10.8079 22.4503 9.96903C20.3864 10.0718 18.3225 9.94126 16.2586 9.9607C16.2531 10.8107 16.2531 11.6607 16.2559 12.5107C15.4225 12.4913 14.5892 12.4663 13.7586 12.4635C13.767 10.8274 13.3392 8.5357 15.1948 7.71626Z" fill="#757575"/>
<path d="M4.21139 13.0811C5.25584 12.3449 6.5975 12.5783 7.7975 12.4894C9.78362 12.5116 11.7725 12.5533 13.7586 12.4644C14.5892 12.4672 15.4225 12.4922 16.2558 12.5116C18.3558 12.5144 20.4558 12.5422 22.5558 12.4894C23.3836 12.4727 24.2142 12.4866 25.0447 12.5116C26.1725 12.5505 27.3003 12.5088 28.4281 12.4561C27.6475 13.3144 26.6725 14.1199 26.3919 15.3005C26.1392 16.4255 26.2308 17.5922 26.2392 18.7366V18.8144C25.4086 18.7894 24.5781 18.7699 23.7447 18.7561C23.7392 18.3727 23.7281 17.9894 23.7197 17.6088C23.2753 17.5866 22.8308 17.5644 22.3892 17.5505C21.1864 17.5172 19.9836 17.5199 18.7836 17.6061C18.7725 17.9866 18.7614 18.3699 18.7531 18.7533C18.7475 19.1838 18.7419 19.6116 18.7392 20.0422C18.7753 20.9338 18.6225 21.8783 18.9475 22.7311C19.3336 23.6033 20.3725 23.8394 21.242 23.7838C22.0364 23.7616 23.0086 23.6838 23.4531 22.9116C23.9225 22.0116 23.7197 20.9449 23.767 19.9699C24.5725 19.9922 25.3781 20.0172 26.1836 20.0394C26.2808 23.7616 26.2558 27.4866 26.2031 31.2061C18.3781 31.2533 10.5558 31.2616 2.73362 31.2033C2.69195 27.4811 2.67806 23.7588 2.74195 20.0394C3.89473 20.0172 5.05028 19.9922 6.20584 19.9699C6.1725 19.5533 6.13917 19.1366 6.10584 18.7227C5.00028 18.7311 3.89195 18.7366 2.78362 18.7449C2.71695 17.6394 2.61417 16.5338 2.59473 15.4255C2.74195 14.4533 3.41695 13.6255 4.21139 13.0811ZM6.29195 17.6144C6.2725 17.9949 6.25584 18.3727 6.24195 18.7533C6.24473 19.1616 6.2475 19.5727 6.25028 19.9811C6.32528 21.0033 5.98639 22.1894 6.65862 23.0672C7.14473 23.7172 8.00862 23.8144 8.76139 23.7727C9.43639 23.7311 10.2197 23.7616 10.7114 23.2088C11.5447 22.3533 11.1781 21.0449 11.2586 19.9755C13.6086 19.8977 15.9697 20.1144 18.3142 19.9477C18.9364 19.9088 18.6336 19.1144 18.6697 18.7172C16.1919 18.7394 13.7169 18.7477 11.2419 18.7088C11.2364 18.3477 11.2308 17.9838 11.2225 17.6199C10.7753 17.5922 10.3253 17.5616 9.87806 17.5311C8.68362 17.5311 7.48362 17.5005 6.29195 17.6144Z" fill="#E81224"/>
<path d="M28.4272 12.4551C30.3466 12.4773 32.2661 12.4412 34.1827 12.5606C35.8077 12.6217 37.2244 14.0217 37.4383 15.6106C37.58 16.6467 37.5327 17.6967 37.5411 18.7412C33.7744 18.7551 30.005 18.7606 26.2383 18.7356C26.23 17.5912 26.1383 16.4245 26.3911 15.2995C26.6716 14.119 27.6466 13.3134 28.4272 12.4551Z" fill="#C50F1F"/>
<path d="M2.59382 15.4248C2.61326 16.5331 2.71604 17.6387 2.7827 18.7443C3.89104 18.7359 4.99937 18.7304 6.10493 18.722C6.13826 19.1359 6.17159 19.5526 6.20493 19.9692C5.04937 19.9915 3.89382 20.0165 2.74104 20.0387C2.67715 23.7581 2.69104 27.4804 2.7327 31.2026C10.5549 31.2609 18.3771 31.2526 26.2021 31.2054C26.2549 27.4859 26.2799 23.7609 26.1827 20.0387C25.3771 20.0165 24.5716 19.9915 23.766 19.9692C23.7605 19.5637 23.7521 19.1581 23.7438 18.7554C24.5771 18.7692 25.4077 18.7887 26.2383 18.8137C26.2494 19.222 26.2605 19.6304 26.2716 20.0387C30.0021 19.9359 33.7355 19.9554 37.4688 20.047C37.5938 23.647 37.4549 27.247 37.5244 30.8442C37.6299 31.6804 37.0799 32.5915 36.1494 32.4942C29.6494 32.472 23.1494 32.522 16.6466 32.4804C12.6716 32.6165 8.69381 32.3554 4.72159 32.5304C4.04382 32.497 3.16326 32.622 2.71882 31.9831C2.42993 31.4692 2.4827 30.8498 2.45215 30.2831C2.47159 26.847 2.44937 23.4109 2.46882 19.9748C2.47993 18.4581 2.38826 16.9331 2.59382 15.4248Z" fill="#C50F1F"/>
<path d="M11.2412 18.708C13.7162 18.7469 16.1912 18.7386 18.669 18.7163C18.6329 19.1136 18.9357 19.908 18.3134 19.9469C15.969 20.1136 13.6079 19.8969 11.2579 19.9747C11.2523 19.5525 11.2468 19.1302 11.2412 18.708Z" fill="#C50F1F"/>
<path d="M6.29121 17.6134C7.48288 17.4995 8.68288 17.5301 9.87732 17.5301C9.91621 17.9356 9.95232 18.3412 9.9801 18.7468C8.73566 18.7495 7.48843 18.7523 6.24121 18.7523C6.2551 18.3718 6.27177 17.994 6.29121 17.6134Z" fill="#E5E6E6"/>
<path d="M18.784 17.6056C19.984 17.5195 21.1868 17.5167 22.3895 17.5501C22.4145 17.9528 22.4368 18.3528 22.4534 18.7556C21.2201 18.75 19.9868 18.7501 18.7534 18.7528C18.7618 18.3695 18.7729 17.9862 18.784 17.6056Z" fill="#E5E6E6"/>
<path d="M9.8779 17.5303C10.3251 17.5608 10.7751 17.5914 11.2223 17.6192C11.2307 17.9831 11.2362 18.3469 11.2418 18.7081C11.2473 19.1303 11.2529 19.5525 11.2585 19.9747C11.1779 21.0442 11.5446 22.3525 10.7112 23.2081C10.2196 23.7608 9.43623 23.7303 8.76123 23.7719C10.1362 23.0386 10.1029 21.4081 10.0501 20.0636C10.0335 19.6219 10.0112 19.1831 9.98067 18.7469C9.9529 18.3414 9.91679 17.9358 9.8779 17.5303Z" fill="#747575"/>
<path d="M22.3884 17.5498C22.8301 17.5637 23.2745 17.5859 23.719 17.6081C23.7273 17.9887 23.7384 18.372 23.744 18.7554C23.7523 19.1581 23.7607 19.5637 23.7662 19.9692C23.719 20.9442 23.9218 22.0109 23.4523 22.9109C23.0079 23.6831 22.0357 23.7609 21.2412 23.7831C21.6718 23.3942 22.2662 23.047 22.3857 22.4331C22.5245 21.6165 22.4801 20.7859 22.4829 19.9609C22.4745 19.5609 22.4634 19.1581 22.4523 18.7554C22.4357 18.3526 22.4134 17.9526 22.3884 17.5498Z" fill="#747575"/>
<path d="M26.2388 18.7363C30.0054 18.7613 33.7749 18.7558 37.5415 18.7419C37.5165 19.1752 37.4915 19.6113 37.4693 20.0474C33.736 19.9558 30.0027 19.9363 26.2721 20.0391C26.261 19.6308 26.2499 19.2224 26.2388 18.8141V18.7363Z" fill="#2A2B2B"/>
<path d="M6.24121 18.7526C7.48843 18.7526 8.73566 18.7498 9.9801 18.7471C10.0107 19.1832 10.0329 19.6221 10.0495 20.0637C8.78288 20.0387 7.51621 20.0165 6.24954 19.9804C6.24677 19.5721 6.24399 19.161 6.24121 18.7526Z" fill="#A6A6A6"/>
<path d="M18.7527 18.7528C19.986 18.75 21.2193 18.75 22.4527 18.7556C22.4638 19.1584 22.4749 19.5611 22.4832 19.9611C21.2332 20 19.986 20.0306 18.7388 20.0417C18.7415 19.6111 18.7471 19.1834 18.7527 18.7528Z" fill="#A6A6A6"/>
<path d="M6.25008 19.9805C7.51675 20.0166 8.78341 20.0388 10.0501 20.0638C10.1029 21.4082 10.1362 23.0388 8.76119 23.7721C8.00841 23.8138 7.14452 23.7166 6.65841 23.0666C5.98619 22.1888 6.32508 21.0027 6.25008 19.9805Z" fill="#E5E5E5"/>
<path d="M18.7391 20.0415C19.9864 20.0304 21.2336 19.9998 22.4836 19.9609C22.4808 20.7859 22.5253 21.6165 22.3864 22.4332C22.2669 23.047 21.6725 23.3943 21.2419 23.7832C20.3725 23.8387 19.3336 23.6026 18.9475 22.7304C18.6225 21.8776 18.7753 20.9332 18.7391 20.0415Z" fill="#E5E5E5"/>
</svg>
